<svg width="8" height="9" viewBox="0 0 8 9" fill="none" xmlns="http://www.w3.org/2000/svg">
<path d="M0.5625 8.15625C0.5625 8.63086 0.931641 9 1.40625 9H6.46875C6.92578 9 7.3125 8.63086 7.3125 8.15625V2.25H0.5625V8.15625ZM5.34375 3.65625C5.34375 3.51562 5.4668 3.375 5.625 3.375C5.76562 3.375 5.90625 3.51562 5.90625 3.65625V7.59375C5.90625 7.75195 5.76562 7.875 5.625 7.875C5.4668 7.875 5.34375 7.75195 5.34375 7.59375V3.65625ZM3.65625 3.65625C3.65625 3.51562 3.7793 3.375 3.9375 3.375C4.07812 3.375 4.21875 3.51562 4.21875 3.65625V7.59375C4.21875 7.75195 4.07812 7.875 3.9375 7.875C3.7793 7.875 3.65625 7.75195 3.65625 7.59375V3.65625ZM1.96875 3.65625C1.96875 3.51562 2.0918 3.375 2.25 3.375C2.39062 3.375 2.53125 3.51562 2.53125 3.65625V7.59375C2.53125 7.75195 2.39062 7.875 2.25 7.875C2.0918 7.875 1.96875 7.75195 1.96875 7.59375V3.65625ZM7.59375 0.5625H5.48438L5.30859 0.246094C5.23828 0.105469 5.09766 0 4.93945 0H2.91797C2.75977 0 2.61914 0.105469 2.54883 0.246094L2.39062 0.5625H0.28125C0.123047 0.5625 0 0.703125 0 0.84375V1.40625C0 1.56445 0.123047 1.6875 0.28125 1.6875H7.59375C7.73438 1.6875 7.875 1.56445 7.875 1.40625V0.84375C7.875 0.703125 7.73438 0.5625 7.59375 0.5625Z" fill="#FF0000"/>
</svg>
