<svg width="19" height="11" viewBox="0 0 19 11" fill="none" xmlns="http://www.w3.org/2000/svg">
<path d="M19 3.45752C19 4.62721 19 5.73673 19 6.89198C18.4368 6.89198 17.8881 6.89198 17.3104 6.89198C17.3104 8.05686 17.3104 9.17842 17.3104 10.3337C16.1504 10.3337 15.0192 10.3337 13.8495 10.3337C13.8495 9.21452 13.8495 8.08334 13.8495 6.92087C13.7051 6.91124 13.5992 6.8968 13.4933 6.8968C12.4656 6.89439 11.4403 6.90161 10.4126 6.89198C10.1888 6.88958 10.0637 6.94012 9.9674 7.16636C9.07449 9.25303 6.95894 10.5575 4.84339 10.3481C2.427 10.1026 0.617114 8.51896 0.1141 6.20605C-0.624777 2.80529 2.33554 -0.40775 5.79647 0.0423161C7.7628 0.297434 9.13947 1.36123 9.94814 3.15186C10.0637 3.40698 10.196 3.46234 10.4439 3.46234C13.1395 3.45512 15.8375 3.45752 18.5331 3.45752C18.6823 3.45752 18.8267 3.45752 19 3.45752ZM5.17793 6.88958C6.13583 6.8968 6.9084 6.14829 6.91803 5.20484C6.93006 4.24935 6.17915 3.47196 5.2357 3.46234C4.25133 3.4503 3.48838 4.19159 3.48357 5.16633C3.47635 6.12422 4.22486 6.88476 5.17793 6.88958Z" fill="#A5A3A3"/>
</svg>
