<svg width="10" height="13" viewBox="0 0 10 13" fill="none" xmlns="http://www.w3.org/2000/svg">
<path d="M5.09659 -5.25005e-07C5.19866 0.0500655 5.28051 0.127089 5.35971 0.210766C6.85062 1.78767 8.3422 3.36387 9.83544 4.93797C9.95043 5.05911 10.0233 5.19075 9.99318 5.36511C9.9607 5.55312 9.79965 5.68371 9.60048 5.68441C8.96786 5.68581 8.33557 5.68511 7.70296 5.68511C7.42194 5.68511 7.32782 5.78349 7.32782 6.07688C7.32782 8.22517 7.32782 10.3735 7.32749 12.5221C7.32749 12.77 7.23305 12.9209 7.04614 12.9825C6.9908 13.0007 6.93513 12.9951 6.87979 12.9954C5.62283 12.9958 4.36588 12.9905 3.10892 13C2.86602 13.0017 2.66354 12.8337 2.66453 12.5329C2.67116 10.3931 2.66818 8.25318 2.66818 6.1133C2.66818 5.78174 2.57638 5.68511 2.26223 5.68511C1.6538 5.68511 1.04537 5.68301 0.436942 5.68651C0.250702 5.68756 0.105555 5.61999 0.0319865 5.43583C-0.0419128 5.25027 0.0184005 5.09447 0.14963 4.95618C1.66507 3.35757 3.17951 1.75756 4.69263 0.156499C4.75559 0.0899777 4.82916 0.0448136 4.90471 0.00034949C4.96867 -5.13822e-07 5.03263 -5.19413e-07 5.09659 -5.25005e-07Z" fill="#48C10F"/>
</svg>
