<svg width="10" height="13" viewBox="0 0 10 13" fill="none" xmlns="http://www.w3.org/2000/svg">
<path d="M4.90341 13C4.80134 12.9499 4.71949 12.8729 4.64029 12.7892C3.14937 11.2123 1.6578 9.63613 0.164563 8.06203C0.0495715 7.94089 -0.0233339 7.80925 0.00682244 7.63489C0.0392985 7.44688 0.200353 7.31629 0.399517 7.31559C1.03214 7.31419 1.66442 7.31489 2.29704 7.31489C2.57806 7.31489 2.67218 7.21651 2.67218 6.92312C2.67218 4.77483 2.67218 2.62655 2.67251 0.477916C2.67251 0.230037 2.76695 0.0791387 2.95386 0.0175191C3.0092 -0.000686683 3.06487 0.0049151 3.12021 0.00456499C4.37717 0.00421488 5.63412 0.00946655 6.89108 1.35403e-05C7.13398 -0.00173702 7.33646 0.166316 7.33547 0.467062C7.32884 2.60694 7.33182 4.74682 7.33182 6.8867C7.33182 7.21826 7.42362 7.31489 7.73777 7.31489C8.3462 7.31489 8.95463 7.31699 9.56306 7.31349C9.7493 7.31244 9.89444 7.38001 9.96801 7.56417C10.0419 7.74973 9.9816 7.90553 9.85037 8.04382C8.33493 9.64243 6.82049 11.2424 5.30737 12.8435C5.24441 12.91 5.17084 12.9552 5.09528 12.9997C5.03133 13 4.96737 13 4.90341 13Z" fill="#FF0000"/>
</svg>
