<svg width="18" height="18" viewBox="0 0 18 18" fill="none" xmlns="http://www.w3.org/2000/svg">
<path d="M16.5682 5.44001C16.128 4.48084 15.5282 3.63019 14.7861 2.87979C14.4691 2.55938 13.9429 2.65188 13.7715 3.05809C13.6451 3.35732 13.7529 3.59918 13.9652 3.82864C15.8545 5.86482 16.5532 8.2545 15.9695 10.9656C15.3216 13.9734 12.7756 16.3538 9.49151 16.7052C8.0046 16.8644 6.58553 16.5931 5.25917 15.8949C2.20714 14.2881 0.730066 10.9543 1.42769 7.65656C1.75656 6.10255 2.48992 4.76559 3.6345 3.65602C3.88931 3.40848 3.87998 3.0183 3.6288 2.7723C3.38072 2.5294 2.98918 2.53561 2.74214 2.7878C2.66497 2.86636 2.59143 2.94749 2.51737 3.02915C0.326618 5.43433 -0.476656 8.23796 0.274828 11.3987C1.3816 16.052 6.16344 18.898 10.807 17.7429C14.7043 16.7739 17.4212 13.2912 17.4145 9.27363C17.4124 7.91083 17.1467 6.69997 16.5682 5.44001Z" fill="#2E2E2E"/>
<path d="M8.0925 9.8877C8.0925 10.2769 8.353 10.5492 8.71917 10.5471C9.07704 10.5451 9.33444 10.2753 9.33444 9.89597C9.33496 6.81533 9.33496 3.73469 9.33444 0.654057C9.33444 0.583773 9.33548 0.514005 9.31217 0.44372C9.20962 0.139326 8.91649 -0.0425876 8.60056 0.00857544C8.31364 0.0550873 8.09301 0.318138 8.0925 0.626667C8.09094 2.17655 8.09198 3.72643 8.09198 5.27682C8.09198 6.81378 8.09146 8.35074 8.0925 9.8877Z" fill="#2E2E2E"/>
</svg>
