<svg width="22" height="20" viewBox="0 0 22 20" fill="none" xmlns="http://www.w3.org/2000/svg">
<path d="M21.9186 3.79026C21.4719 1.39549 18.8402 -0.342197 16.2122 0.0572711C14.3548 0.339752 13.0375 1.29399 12.2668 2.86129C12.182 3.03412 12.0927 3.06999 11.9084 3.06959C9.09429 3.0651 6.27971 3.06633 3.46557 3.06633C3.08714 3.06633 2.96843 3.17557 2.96576 3.52164C2.93764 7.23017 2.90863 10.9387 2.88543 14.6476C2.88454 14.7952 2.84571 14.8327 2.68461 14.8307C1.9398 14.8221 1.19498 14.8245 0.450615 14.8278C0.105653 14.8294 0.000780961 14.9297 0.000334698 15.2379C-0.000111566 15.6761 -0.000111566 16.1143 0.000334698 16.5524C0.00211975 18.0097 1.24496 19.1502 2.84036 19.151C6.39931 19.1531 9.95871 19.1518 13.5177 19.1514C13.818 19.1514 14.1192 19.158 14.4151 19.0984C15.7691 18.8262 16.6683 17.8087 16.6696 16.5423C16.6714 14.6321 16.6701 12.7224 16.6701 10.8123C16.6701 10.3481 16.6759 9.88337 16.6665 9.41909C16.6638 9.28621 16.7093 9.254 16.8454 9.26256C17.1391 9.28131 17.435 9.26664 17.7224 9.21446C19.8542 8.83008 21.2309 7.68426 21.8498 5.77986C21.9137 5.58338 21.9052 5.37264 22.0002 5.18351C22.0002 4.84355 22.0002 4.50319 22.0002 4.16323C21.9221 4.04951 21.9418 3.91458 21.9186 3.79026ZM11.7478 18.4903C8.79173 18.4903 5.83612 18.4907 2.88007 18.4899C1.78584 18.4895 0.938381 17.8634 0.75095 16.8838C0.668391 16.4526 0.733546 16.0095 0.722389 15.5721C0.720604 15.5016 0.760768 15.482 0.8286 15.4853C0.871441 15.4873 0.914282 15.4857 0.95757 15.4857C4.24252 15.4857 7.52791 15.4869 10.8129 15.482C10.9949 15.4816 11.0529 15.5126 11.0507 15.692C11.0449 16.1028 11.0128 16.5154 11.073 16.9254C11.1618 17.5307 11.4617 18.0362 11.9767 18.4907C11.8709 18.4903 11.8094 18.4903 11.7478 18.4903ZM15.9373 16.6914C15.9324 17.6216 15.0501 18.4169 13.9992 18.4866C12.9763 18.5547 11.9914 17.8727 11.8147 16.9629C11.7139 16.4444 11.7897 15.9194 11.7696 15.3977C11.7661 15.3064 11.7772 15.2138 11.7661 15.1233C11.7455 14.955 11.6478 14.8461 11.4519 14.8331C11.3734 14.8278 11.2948 14.8274 11.2158 14.8274C8.74576 14.827 6.27614 14.8258 3.80607 14.8303C3.65166 14.8307 3.60079 14.8042 3.60213 14.6509C3.63515 11.061 3.66237 7.47107 3.68513 3.88116C3.68603 3.74461 3.7369 3.72586 3.86765 3.72586C6.50239 3.72912 9.13669 3.72789 11.7714 3.7283C11.8638 3.7283 11.9785 3.69284 11.9477 3.85426C11.7759 4.75184 11.9017 5.61925 12.2985 6.48178C11.1882 6.48178 10.1073 6.48137 9.02646 6.48218C8.78235 6.48218 8.63598 6.56779 8.59492 6.7288C8.5378 6.95502 8.6989 7.14008 8.97023 7.14294C9.45711 7.14824 9.94398 7.14457 10.4309 7.14457C11.1324 7.14457 11.8339 7.14661 12.5359 7.14253C12.6452 7.14212 12.7122 7.16658 12.7791 7.25544C13.5194 8.23699 14.5267 8.86921 15.7967 9.14598C15.907 9.17003 15.9453 9.20876 15.9453 9.31474C15.9422 11.7739 15.9507 14.2331 15.9373 16.6914ZM16.9226 8.60548C14.5289 8.59774 12.5859 6.81766 12.5921 4.63852C12.5988 2.44878 14.5592 0.666664 16.9539 0.673594C19.3445 0.680523 21.2795 2.45938 21.2759 4.64667C21.2728 6.84782 19.3311 8.61363 16.9226 8.60548Z" fill="white"/>
<path d="M13.5884 12.1775C12.0707 12.1771 10.5534 12.1767 9.03565 12.1775C8.7429 12.1775 8.58448 12.2998 8.58805 12.5163C8.59162 12.7274 8.73978 12.8375 9.02672 12.8375C9.79251 12.8379 10.5587 12.8375 11.3245 12.8375C12.0832 12.8375 12.8423 12.8379 13.6009 12.8375C13.8999 12.8375 14.0534 12.7229 14.0503 12.5053C14.0467 12.2949 13.8834 12.1775 13.5884 12.1775Z" fill="white"/>
<path d="M13.6334 9.33716C12.8609 9.33553 12.088 9.33634 11.3155 9.33634C11.3155 9.33675 11.3155 9.33675 11.3155 9.33716C10.5288 9.33716 9.74155 9.33471 8.95479 9.33879C8.73255 9.34001 8.59689 9.46311 8.5893 9.64613C8.58171 9.8316 8.70265 9.95837 8.91998 9.98813C8.97621 9.99587 9.03378 9.99628 9.0909 9.99628C10.5792 9.99669 12.067 9.99669 13.5553 9.99587C13.6263 9.99587 13.699 9.9918 13.7682 9.97794C13.9686 9.93799 14.0824 9.78024 14.048 9.59967C14.0159 9.43254 13.8722 9.33757 13.6334 9.33716Z" fill="white"/>
<path d="M17.7851 4.5633C17.5232 4.38884 17.2237 4.3281 16.9006 4.31139C16.4374 4.28734 16.1112 3.96124 16.1259 3.57197C16.1402 3.1884 16.4811 2.87657 16.8957 2.86801C17.3384 2.85904 17.6651 3.1407 17.7066 3.56707C17.7271 3.78067 17.8842 3.92823 18.0828 3.9213C18.2939 3.91396 18.4474 3.75336 18.4291 3.52754C18.3831 2.95727 18.0792 2.53742 17.4955 2.32139C17.2987 2.24842 17.2264 2.1722 17.2384 1.97654C17.2541 1.72096 17.0814 1.58359 16.835 1.60927C16.6248 1.63128 16.5204 1.76213 16.5284 2.02994C16.5333 2.1832 16.4963 2.26269 16.3182 2.32791C15.6225 2.58226 15.2602 3.29682 15.4641 3.95676C15.6538 4.57104 16.1692 4.92241 16.9649 4.97907C17.4009 5.01005 17.7075 5.30843 17.7057 5.69934C17.7043 5.99772 17.5102 6.25982 17.2041 6.36498C16.7266 6.52925 16.1696 6.26634 16.1214 5.70627C16.1005 5.46414 15.9461 5.35001 15.7189 5.37365C15.5114 5.39525 15.3936 5.54566 15.4105 5.77189C15.4462 6.2484 15.6743 6.6389 16.1326 6.86106C16.4102 6.99557 16.5806 7.11663 16.5432 7.43091C16.5231 7.59763 16.6802 7.69627 16.8672 7.70646C17.0452 7.71584 17.1715 7.63513 17.2237 7.48105C17.2483 7.40808 17.2523 7.32411 17.2416 7.24789C17.2215 7.10196 17.2777 7.03837 17.4352 6.9866C18.0114 6.79624 18.3465 6.4033 18.4193 5.85546C18.4911 5.32066 18.2644 4.88206 17.7851 4.5633Z" fill="white"/>
<path d="M6.65593 11.4763C6.03205 11.4755 5.50278 11.9442 5.50501 12.4962C5.50725 13.0448 6.02179 13.5014 6.6412 13.5042C7.27623 13.5075 7.79613 13.0579 7.80282 12.4998C7.81041 11.95 7.28025 11.4771 6.65593 11.4763ZM6.65994 12.8418C6.42342 12.8439 6.23019 12.6869 6.23019 12.4937C6.23019 12.3042 6.43369 12.1354 6.65905 12.1379C6.87638 12.1403 7.07095 12.3005 7.07899 12.4831C7.08702 12.6767 6.89646 12.8398 6.65994 12.8418Z" fill="white"/>
<path d="M6.64754 8.64616C6.0317 8.65105 5.51135 9.11003 5.50555 9.65461C5.4993 10.2082 6.02277 10.6757 6.65022 10.6773C7.27945 10.679 7.8047 10.2167 7.80336 9.66236C7.80158 9.10921 7.26963 8.64127 6.64754 8.64616ZM6.65691 10.0145C6.42218 10.0158 6.22805 9.85475 6.23028 9.66113C6.23251 9.47118 6.4378 9.30324 6.66227 9.30772C6.8796 9.31221 7.07327 9.47444 7.07908 9.65624C7.08488 9.84782 6.88986 10.0133 6.65691 10.0145Z" fill="white"/>
<path d="M6.6582 7.84933C7.28341 7.84729 7.81223 7.37364 7.80286 6.82416C7.79304 6.27388 7.27806 5.81979 6.66043 5.81693C6.03521 5.81408 5.50594 6.27917 5.5055 6.83191C5.5046 7.38464 6.03387 7.85137 6.6582 7.84933ZM6.6515 6.47932C6.8791 6.47769 7.08081 6.64603 7.07858 6.83558C7.07679 7.01941 6.88758 7.18083 6.66757 7.18694C6.43953 7.19306 6.23514 7.03164 6.22978 6.84047C6.22487 6.65011 6.42212 6.48095 6.6515 6.47932Z" fill="white"/>
</svg>
