<svg width="56" height="42" viewBox="0 0 56 42" fill="none" xmlns="http://www.w3.org/2000/svg">
<path d="M55.8647 25.4155C55.5545 22.4693 54.3493 19.9098 52.3842 17.7056C51.1284 16.2968 49.6225 15.2145 47.9253 14.4028C47.958 14.3331 47.9676 14.2962 47.9909 14.2689C48.0742 14.1719 48.1658 14.083 48.2478 13.986C50.3303 11.529 50.9644 8.74 49.919 5.69269C48.4746 1.48248 44.2152 -0.773617 39.8901 0.27996C39.1139 0.468537 38.376 0.782834 37.6914 1.20098C37.1885 1.50708 37.0409 1.99492 37.2842 2.45817C37.5274 2.92142 38.0057 3.07856 38.5386 2.85992C38.7395 2.77793 38.9295 2.66998 39.1235 2.57159C40.05 2.10561 41.0448 1.88697 42.0711 1.8979C45.1854 1.9307 47.8364 4.1499 48.3885 7.26964C48.9174 10.2582 47.4237 13.0992 44.6114 14.3604C43.2504 14.9699 41.8429 15.056 40.3998 14.7321C39.6715 14.5681 39.1713 14.7868 39.0278 15.3361C38.8707 15.9415 39.1946 16.3583 39.9407 16.5496C41.6693 16.9896 43.4089 16.9773 44.9968 16.1861C46.0203 15.6764 46.8033 15.8663 47.6533 16.3911C47.6684 16.4006 47.6875 16.4034 47.7039 16.4129C51.4113 18.5078 53.5499 21.6549 54.0172 25.9006C54.2181 27.7167 54.0637 29.541 54.117 31.3611C54.1265 31.7028 53.9871 31.7342 53.7043 31.7342C51.1352 31.7246 48.5675 31.7219 45.9985 31.7383C45.6582 31.741 45.6035 31.6317 45.5584 31.3201C44.8369 26.3748 42.5043 22.3695 38.5099 19.3482C37.5301 18.6075 36.4615 18.0104 35.3492 17.4692C39.6182 12.8778 38.8557 6.56179 35.2043 2.99111C31.4109 -0.718956 25.599 -1.00456 21.4995 2.33382C19.4921 3.96816 18.2499 6.09581 17.8522 8.65664C17.3275 12.0292 18.3401 14.9562 20.6317 17.4679C20.5019 17.5362 20.4063 17.5895 20.3092 17.636C18.4453 18.5419 16.7645 19.7144 15.3214 21.1998C12.5638 24.0408 10.9199 27.4352 10.4088 31.3639C10.3664 31.6864 10.253 31.7342 9.97287 31.7328C7.40381 31.7246 4.83612 31.7233 2.26706 31.7328C1.97872 31.7342 1.85027 31.6891 1.85847 31.3557C1.90766 29.6079 1.76828 27.8561 1.94319 26.1124C2.41874 21.3679 4.86208 18.0186 9.16116 15.9893C9.64764 15.7597 10.0426 15.7816 10.5263 16.0194C12.3643 16.9226 14.2924 17.0156 16.2575 16.5086C16.8137 16.3651 17.0897 15.8568 16.9449 15.3266C16.7973 14.7813 16.2971 14.5668 15.5674 14.7376C10.7941 15.8472 6.55793 11.6766 7.64978 6.94031C8.38224 3.76182 11.3736 1.63007 14.6204 1.94846C15.5988 2.04412 16.4816 2.37481 17.3439 2.82166C17.9137 3.11683 18.4385 2.94465 18.694 2.44997C18.9413 1.97169 18.7733 1.47429 18.2308 1.16682C16.3901 0.121445 14.4154 -0.254344 12.3438 0.173372C5.93343 1.49342 3.4204 9.14175 7.7673 14.0366C7.86569 14.1473 8.02694 14.2293 8.01601 14.4137C7.79737 14.5299 7.58829 14.6378 7.38195 14.7513C3.87135 16.6739 1.592 19.575 0.474183 23.4094C0.273304 24.0954 0.276037 24.8251 0 25.492C0 28.0064 0 30.5207 0 33.0351C0.330698 33.5175 0.800781 33.6159 1.35832 33.6118C4.10913 33.594 6.85993 33.6172 9.61074 33.5913C10.1164 33.5872 10.2872 33.6787 10.2776 34.2308C10.2407 36.4158 10.2598 38.6023 10.2639 40.7887C10.2653 41.696 10.57 41.9994 11.4678 41.9994C22.4711 42.0008 33.4743 41.9994 44.4789 41.9994C45.4136 41.9994 45.7074 41.7042 45.7088 40.76C45.7115 38.6105 45.7279 36.4609 45.6978 34.3114C45.6896 33.7689 45.7921 33.579 46.3907 33.5872C49.1046 33.6241 51.8198 33.6036 54.5337 33.6036C54.7155 33.6036 54.8986 33.6063 55.079 33.5899C55.6174 33.5421 55.9727 33.2141 55.9645 32.6785C55.9303 30.2556 56.1189 27.8301 55.8647 25.4155ZM19.5973 10.2664C19.6287 5.65716 23.3825 1.90337 27.9768 1.88697C32.5669 1.87057 36.4096 5.71729 36.3795 10.2978C36.3495 14.9152 32.6175 18.6362 28 18.6526C23.3866 18.669 19.5672 14.8565 19.5973 10.2664ZM43.8407 38.1335C43.8489 38.661 43.8216 39.1912 43.8489 39.7173C43.8667 40.0494 43.7765 40.1505 43.4308 40.1423C42.3212 40.1177 41.2088 40.1327 40.0992 40.1327C36.057 40.1327 32.0135 40.1327 27.9713 40.1327C22.8906 40.1327 17.8099 40.1232 12.7291 40.1464C12.2099 40.1491 12.1142 39.992 12.1251 39.5178C12.188 37.0977 12.024 34.6736 12.2249 32.2562C12.5501 28.3316 14.1572 24.9973 16.9599 22.2438C18.3606 20.8677 19.9949 19.8306 21.7946 19.0448C22.1554 18.8877 22.4328 18.874 22.7854 19.094C24.4963 20.1654 26.3834 20.6245 28.3908 20.5452C30.1045 20.4769 31.7224 20.0314 33.1805 19.1036C33.5426 18.8726 33.8337 18.8672 34.2177 19.0448C39.6605 21.5551 42.8391 25.7749 43.7041 31.6946C44.017 33.825 43.8066 35.9868 43.8407 38.1335Z" fill="#64009C"/>
</svg>
