<svg width="20" height="19" viewBox="0 0 20 19" fill="none" xmlns="http://www.w3.org/2000/svg">
<path d="M19.4811 8.16285C16.7884 5.60553 14.0957 3.04915 11.404 0.490886C11.1465 0.245443 10.8563 0.0566406 10.4875 0C10.1744 0 9.86128 0 9.54817 0C9.02533 0.154818 8.66551 0.517318 8.29375 0.871321C5.75013 3.29176 3.20253 5.70843 0.656917 8.12698C0.587338 8.19306 0.518749 8.2582 0.454139 8.32806C0.173833 8.63203 0.0197658 8.98792 0.00187391 9.39007C-0.0448437 10.4323 0.787125 11.2318 1.91928 11.2233C2.10913 11.2224 2.15188 11.2658 2.15088 11.4452C2.14293 13.236 2.17076 15.0268 2.13796 16.8156C2.1151 18.0504 3.12699 19.0331 4.4321 18.9991C5.41019 18.9737 6.38926 18.9944 7.36735 18.9944C7.87528 18.9944 8.09198 18.7896 8.09198 18.3053C8.09198 16.8931 8.10788 15.4799 8.08502 14.0676C8.07508 13.4484 8.53331 12.9952 9.18934 13.0151C9.73703 13.0311 10.2857 13.033 10.8334 13.0151C11.5073 12.9934 11.9606 13.454 11.9507 14.0761C11.9268 15.5073 11.9427 16.9384 11.9437 18.3695C11.9437 18.766 12.1842 18.9944 12.5967 18.9944C13.6275 18.9954 14.6583 18.9944 15.6891 18.9954C15.872 18.9954 16.0529 18.9784 16.2308 18.9359C17.2357 18.6961 17.8858 17.9041 17.8878 16.9016C17.8917 15.0862 17.8917 13.2709 17.8848 11.4565C17.8838 11.2762 17.9186 11.2167 18.1233 11.2233C18.7913 11.246 19.3201 10.9836 19.7127 10.471C19.8479 10.2935 19.9155 10.0867 20 9.88756C20 9.61474 20 9.34192 20 9.07005C19.9563 8.70094 19.7485 8.41679 19.4811 8.16285ZM18.836 9.64306C18.7535 9.92343 18.514 10.1066 18.2088 10.1122C17.9216 10.1179 17.6353 10.1113 17.348 10.1141C16.9604 10.1179 16.7149 10.3511 16.7139 10.7202C16.7119 11.7605 16.7129 12.8017 16.7129 13.842C16.7129 14.8521 16.7139 15.8613 16.7129 16.8713C16.7119 17.4925 16.3053 17.8786 15.6533 17.8795C14.871 17.8805 14.0887 17.8758 13.3055 17.8833C13.1554 17.8843 13.1106 17.8522 13.1116 17.703C13.1186 16.4701 13.1196 15.2373 13.1146 14.0053C13.1106 12.9754 12.4417 12.1777 11.4069 11.9549C11.3314 11.9389 11.2529 11.9247 11.1753 11.9228C10.3871 11.8964 9.59588 11.8671 8.80964 11.9323C7.77588 12.0191 6.93994 12.8754 6.92503 13.8656C6.90515 15.141 6.91409 16.4173 6.92105 17.6936C6.92204 17.8503 6.87831 17.8862 6.71728 17.8843C5.93501 17.8758 5.15175 17.8814 4.36947 17.8805C3.72934 17.8795 3.32081 17.4906 3.31982 16.8817C3.31883 14.8559 3.31982 12.831 3.31882 10.8051C3.31882 10.3237 3.10015 10.1151 2.5952 10.1151C2.35366 10.1151 2.11212 10.1141 1.87157 10.1151C1.56542 10.117 1.34078 9.98763 1.22349 9.72236C1.1052 9.4552 1.17479 9.21259 1.38849 9.00869C1.71055 8.70094 2.03459 8.39602 2.35764 8.08922C4.71439 5.85097 7.07115 3.61273 9.4279 1.37448C9.85234 0.971386 10.1843 0.973275 10.6137 1.38014C13.2568 3.89027 15.8988 6.40039 18.5428 8.90862C18.7605 9.11442 18.9285 9.32965 18.836 9.64306Z" fill="#2E2E2E"/>
</svg>
