<svg width="18" height="18" viewBox="0 0 18 18" fill="none" xmlns="http://www.w3.org/2000/svg">
<path d="M17.9874 6.35636C17.9631 6.2536 17.891 6.18326 17.8209 6.11292C17.3452 5.6366 16.8682 5.16105 16.3912 4.6859C16.3454 4.64057 16.298 4.59681 16.2444 4.56086C16.0874 4.45535 15.926 4.45614 15.769 4.5632C15.6958 4.61322 15.6351 4.67652 15.5728 4.73865C15.0175 5.29274 14.4623 5.84721 13.9066 6.40091C13.8678 6.43959 13.8342 6.4857 13.7797 6.51501C13.7605 6.44506 13.7696 6.38645 13.7696 6.32901C13.7688 5.44005 13.7668 4.55109 13.7707 3.66213C13.7719 3.43745 13.6979 3.25809 13.5373 3.09866C12.5521 2.12139 11.5712 1.14021 10.5898 0.159036C10.5182 0.0875284 10.4422 0.0281341 10.3443 0C6.97859 0 3.61247 0 0.246753 0C0.0274627 0.0863562 0.000834524 0.126604 0.000834524 0.384109C0.000442933 6.12191 0.000442933 11.8601 0.000834524 17.5979C0.000834524 17.6389 -0.0022982 17.6804 0.00357566 17.7206C0.02433 17.8636 0.104214 17.9527 0.247537 17.9836C0.311366 17.9973 0.375978 17.9918 0.440199 17.9918C4.73673 17.9922 9.03326 17.9922 13.3298 17.9922C13.365 17.9922 13.4003 17.9922 13.4351 17.9922C13.5824 17.9922 13.6752 17.9175 13.7288 17.7843C13.7833 17.6499 13.7789 17.5096 13.7789 17.3693C13.7793 15.3339 13.7829 13.2985 13.7742 11.263C13.7731 11.02 13.849 10.8481 14.0202 10.6785C15.2776 9.4351 16.5252 8.18157 17.7806 6.93663C17.9498 6.769 18.0336 6.59081 17.9874 6.35636ZM10.5832 1.13162C11.2681 1.81192 11.9381 2.47776 12.6257 3.16079C12.4867 3.16079 12.3614 3.16079 12.2357 3.16079C11.7258 3.16079 11.216 3.15962 10.7061 3.16197C10.6251 3.16236 10.58 3.15728 10.5808 3.05334C10.5855 2.4168 10.5832 1.78027 10.5832 1.13162ZM12.9002 17.3482C8.87819 17.3439 4.85617 17.3439 0.834139 17.3482C0.692775 17.3482 0.665364 17.3088 0.665364 17.1755C0.668888 11.7171 0.668888 6.25868 0.665364 0.80026C0.665364 0.669749 0.689251 0.625985 0.832573 0.626375C3.81101 0.631065 6.78945 0.631065 9.76789 0.626766C9.91512 0.626376 9.94958 0.66506 9.94841 0.810029C9.94097 1.66421 9.9441 2.5184 9.94489 3.37258C9.94528 3.71683 10.022 3.79147 10.3705 3.79147C11.2089 3.79147 12.0473 3.79498 12.8857 3.78834C13.0298 3.78717 13.0839 3.80788 13.0823 3.97317C13.0729 5.02624 13.076 6.07932 13.08 7.1324C13.0804 7.2465 13.0471 7.32621 12.9656 7.4071C11.9968 8.36835 11.0327 9.33389 10.0651 10.2963C9.96329 10.3975 9.89124 10.5097 9.84777 10.6476C9.73773 10.9969 9.61125 11.3412 9.50435 11.6913C9.46871 11.8081 9.41585 11.8367 9.29798 11.8367C7.14031 11.8328 4.98304 11.8335 2.82538 11.8339C2.74353 11.8339 2.6613 11.8281 2.58259 11.8613C2.43614 11.9238 2.36526 12.0332 2.38484 12.1915C2.40481 12.3505 2.50036 12.4419 2.65934 12.4607C2.72317 12.4685 2.78818 12.4646 2.85279 12.4646C4.9106 12.4646 6.96841 12.4646 9.02661 12.4646C9.09004 12.4646 9.15348 12.4646 9.21653 12.4646C9.21848 12.7823 8.88407 13.0566 9.15779 13.402C9.07203 13.402 9.01055 13.402 8.94868 13.402C6.92611 13.402 4.90316 13.402 2.88059 13.402C2.8336 13.402 2.78661 13.4008 2.74001 13.4024C2.5121 13.4106 2.37505 13.5306 2.37701 13.7185C2.37896 13.8963 2.5168 14.0214 2.72826 14.0362C2.76899 14.0389 2.8105 14.037 2.85122 14.037C5.52461 14.037 8.198 14.037 10.8718 14.0362C10.9415 14.0362 11.0131 14.035 11.0805 14.0202C11.2532 13.9827 11.3523 13.8576 11.344 13.7005C11.3354 13.5333 11.2183 13.4114 11.0339 13.4071C10.6646 13.3989 10.2954 13.4028 9.92609 13.402C9.82623 13.4016 9.72677 13.402 9.62691 13.402C9.62613 13.3922 9.62535 13.3829 9.62417 13.3731C10.0765 13.2223 10.5213 13.0417 10.9826 12.9276C11.7286 12.7436 12.3563 12.3958 12.8293 11.7839C12.892 11.7026 12.9699 11.6331 13.0776 11.519C13.0776 11.6315 13.0776 11.687 13.0776 11.7425C13.0776 13.5501 13.0757 15.3581 13.0811 17.1657C13.0823 17.3127 13.0459 17.3482 12.9002 17.3482ZM10.3232 11.2505C10.6353 11.5604 10.9434 11.866 11.254 12.1743C10.806 12.3235 10.3459 12.4767 9.85834 12.6393C10.0209 12.1536 10.1744 11.694 10.3232 11.2505ZM15.762 7.97134C14.494 9.23699 13.2272 10.5038 11.9628 11.773C11.8958 11.8402 11.8598 11.8328 11.7975 11.7695C11.4439 11.4111 11.086 11.0567 10.7285 10.7023C10.6799 10.6542 10.6427 10.6253 10.7144 10.5534C12.0101 9.25809 13.3028 7.95923 14.604 6.65294C15.0085 7.05737 15.3837 7.43601 15.7639 7.80879C15.8313 7.87522 15.8242 7.90921 15.762 7.97134ZM17.167 6.5619C16.8988 6.83152 16.6282 7.0984 16.3627 7.37037C16.2992 7.43523 16.264 7.41882 16.2088 7.36294C15.8548 7.0054 15.4992 6.64943 15.1401 6.29775C15.0767 6.23562 15.0837 6.20124 15.1417 6.14458C15.4091 5.88277 15.6739 5.61823 15.9378 5.35252C15.986 5.30368 16.0188 5.28375 16.0784 5.34392C16.4398 5.71006 16.8056 6.07268 17.1693 6.43647C17.1854 6.45249 17.1995 6.47046 17.2089 6.4818C17.2163 6.52751 17.1862 6.54275 17.167 6.5619Z" fill="#2E2E2E"/>
<path d="M11.1399 14.9883C11.062 14.9554 10.9798 14.959 10.8979 14.959C8.20768 14.9594 5.51745 14.959 2.82723 14.959C2.74538 14.959 2.66393 14.9562 2.58483 14.9875C2.43603 15.0461 2.36045 15.1758 2.38786 15.3333C2.41841 15.5095 2.53314 15.5908 2.763 15.5908C4.12261 15.5916 5.4826 15.5912 6.8422 15.5912C8.18419 15.5912 9.52656 15.5912 10.8685 15.5912C10.9332 15.5912 10.9982 15.5943 11.0616 15.5869C11.221 15.5685 11.3161 15.4775 11.3365 15.3188C11.3576 15.1598 11.2868 15.0504 11.1399 14.9883Z" fill="#2E2E2E"/>
<path d="M2.8421 10.9103C4.21854 10.9103 5.59459 10.9099 6.97103 10.9111C7.05953 10.9111 7.14882 10.9111 7.23027 10.8779C7.36967 10.8208 7.43781 10.7122 7.4245 10.5598C7.41196 10.4152 7.32934 10.3234 7.19189 10.2902C7.11906 10.2726 7.04074 10.2746 6.96477 10.2746C6.27948 10.2734 5.5942 10.2738 4.90931 10.2738C4.21815 10.2738 3.52699 10.2804 2.83623 10.271C2.48301 10.2664 2.39177 10.4043 2.37885 10.584C2.36358 10.7954 2.53549 10.9103 2.8421 10.9103Z" fill="#2E2E2E"/>
</svg>
