<svg width="8" height="6" viewBox="0 0 8 6" fill="none" xmlns="http://www.w3.org/2000/svg">
<path d="M8 0.887068C7.94181 1.15164 7.79087 1.32534 7.65043 1.50997C6.57854 2.91796 5.50753 4.32596 4.43695 5.73511C4.26282 5.96459 4.06419 6.06122 3.82138 5.95999C3.72687 5.92088 3.65075 5.84611 3.58206 5.75581C2.44936 4.26787 1.31665 2.78108 0.186134 1.29083C-0.11137 0.898571 -0.043119 0.308456 0.325699 0.0755152C0.525202 -0.0504452 0.719892 -0.0153603 0.898832 0.154887C0.938646 0.192848 0.973646 0.239436 1.00865 0.285449C1.98604 1.57036 2.96386 2.8547 3.9395 4.14248C3.99113 4.21093 4.01519 4.20345 4.06332 4.13961C5.04289 2.84779 6.02466 1.55886 7.00511 0.268769C7.17705 0.042731 7.37393 -0.0579223 7.61324 0.0450316C7.80837 0.129005 7.92956 0.30788 7.98381 0.566703C7.98775 0.585108 7.98162 0.609265 8 0.620193C8 0.708768 8 0.797918 8 0.887068Z" fill="black"/>
</svg>
