<svg width="299" height="106" viewBox="0 0 299 106" fill="none" xmlns="http://www.w3.org/2000/svg">
<path d="M2.56633 54.1845C2.56633 54.1845 26.9465 10.0353 51.3268 10.0353C75.707 10.0353 75.707 103.528 100.087 103.528C124.467 103.528 124.467 14.71 149.489 14.71C173.869 14.71 173.869 69.2472 198.25 69.2472C222.63 69.2472 222.63 1.72491 247.01 1.72491C271.39 1.72491 296.412 72.883 296.412 72.883" stroke="#9900B8" stroke-width="2"/>
<path d="M0 54.1842C0 54.7352 0.270379 55.2637 0.751661 55.6533C1.23294 56.0429 1.8857 56.2618 2.56634 56.2618C3.24697 56.2618 3.89973 56.0429 4.38102 55.6533C4.8623 55.2637 5.13268 54.7352 5.13268 54.1842C5.13268 53.6332 4.8623 53.1047 4.38102 52.7151C3.89973 52.3255 3.24697 52.1066 2.56634 52.1066C1.8857 52.1066 1.23294 52.3255 0.751661 52.7151C0.270379 53.1047 0 53.6332 0 54.1842Z" fill="#28629A"/>
<path d="M48.9745 10.368C48.9745 10.919 49.2449 11.4475 49.7262 11.8371C50.2075 12.2267 50.8602 12.4456 51.5409 12.4456C52.2215 12.4456 52.8743 12.2267 53.3555 11.8371C53.8368 11.4475 54.1072 10.919 54.1072 10.368C54.1072 9.81702 53.8368 9.28857 53.3555 8.89894C52.8743 8.50931 52.2215 8.29043 51.5409 8.29043C50.8602 8.29043 50.2075 8.50931 49.7262 8.89894C49.2449 9.28857 48.9745 9.81702 48.9745 10.368Z" fill="#28629A"/>
<path d="M97.9485 103.922C97.9485 104.473 98.2189 105.002 98.7002 105.391C99.1815 105.781 99.8343 106 100.515 106C101.196 106 101.848 105.781 102.33 105.391C102.811 105.002 103.081 104.473 103.081 103.922C103.081 103.371 102.811 102.843 102.33 102.453C101.848 102.064 101.196 101.845 100.515 101.845C99.8343 101.845 99.1815 102.064 98.7002 102.453C98.2189 102.843 97.9485 103.371 97.9485 103.922Z" fill="#28629A"/>
<path d="M146.923 15.1044C146.923 15.6555 147.193 16.1839 147.674 16.5735C148.156 16.9632 148.809 17.182 149.489 17.182C150.17 17.182 150.823 16.9632 151.304 16.5735C151.785 16.1839 152.055 15.6555 152.055 15.1044C152.055 14.5534 151.785 14.025 151.304 13.6353C150.823 13.2457 150.17 13.0268 149.489 13.0268C148.809 13.0268 148.156 13.2457 147.674 13.6353C147.193 14.025 146.923 14.5534 146.923 15.1044Z" fill="#28629A"/>
<path d="M195.897 69.5792C195.897 70.1303 196.168 70.6587 196.649 71.0483C197.13 71.438 197.783 71.6569 198.464 71.6569C199.144 71.6569 199.797 71.438 200.278 71.0483C200.76 70.6587 201.03 70.1303 201.03 69.5792C201.03 69.0282 200.76 68.4998 200.278 68.1102C199.797 67.7205 199.144 67.5016 198.464 67.5016C197.783 67.5016 197.13 67.7205 196.649 68.1102C196.168 68.4998 195.897 69.0282 195.897 69.5792Z" fill="#28629A"/>
<path d="M244.872 2.07761C244.872 2.62862 245.142 3.15707 245.623 3.5467C246.105 3.93633 246.757 4.15522 247.438 4.15522C248.119 4.15522 248.771 3.93633 249.253 3.5467C249.734 3.15707 250.004 2.62862 250.004 2.07761C250.004 1.52659 249.734 0.998143 249.253 0.608516C248.771 0.218889 248.119 0 247.438 0C246.757 0 246.105 0.218889 245.623 0.608516C245.142 0.998143 244.872 1.52659 244.872 2.07761Z" fill="#28629A"/>
<path d="M293.846 73.1323C293.846 73.6833 294.116 74.2118 294.598 74.6014C295.079 74.991 295.732 75.2099 296.412 75.2099C297.093 75.2099 297.746 74.991 298.227 74.6014C298.708 74.2118 298.979 73.6833 298.979 73.1323C298.979 72.5813 298.708 72.0528 298.227 71.6632C297.746 71.2736 297.093 71.0547 296.412 71.0547C295.732 71.0547 295.079 71.2736 294.598 71.6632C294.116 72.0528 293.846 72.5813 293.846 73.1323Z" fill="#28629A"/>
</svg>
