<svg width="22" height="17" viewBox="0 0 22 17" fill="none" xmlns="http://www.w3.org/2000/svg">
<path d="M21.9469 10.2872C21.825 9.09471 21.3515 8.05874 20.5795 7.16657C20.0861 6.59632 19.4945 6.15825 18.8278 5.82971C18.8407 5.8015 18.8444 5.78656 18.8535 5.7755C18.8863 5.73623 18.9223 5.70028 18.9545 5.66101C19.7726 4.66652 20.0217 3.53762 19.611 2.30418C19.0436 0.600053 17.3702 -0.313131 15.6711 0.113317C15.3662 0.189646 15.0763 0.316861 14.8073 0.486113C14.6098 0.610009 14.5518 0.80747 14.6473 0.994974C14.7429 1.18248 14.9308 1.24609 15.1402 1.15759C15.2191 1.1244 15.2937 1.08071 15.3699 1.04088C15.7339 0.852272 16.1248 0.763774 16.5279 0.768199C17.7514 0.781473 18.7929 1.67972 19.0098 2.94247C19.2175 4.15212 18.6308 5.30204 17.5259 5.81256C16.9912 6.05925 16.4383 6.09409 15.8714 5.96301C15.5852 5.89663 15.3887 5.98513 15.3324 6.20748C15.2706 6.45251 15.3979 6.62121 15.691 6.69864C16.3701 6.87674 17.0535 6.87176 17.6773 6.55151C18.0794 6.3452 18.387 6.42209 18.7209 6.63448C18.7269 6.63835 18.7344 6.63946 18.7408 6.64333C20.1973 7.49125 21.0374 8.76506 21.221 10.4836C21.3 11.2187 21.2393 11.9571 21.2602 12.6938C21.264 12.8321 21.2092 12.8448 21.0981 12.8448C20.0888 12.8409 19.0801 12.8398 18.0708 12.8465C17.9371 12.8476 17.9157 12.8033 17.898 12.6772C17.6145 10.6755 16.6981 9.05434 15.1289 7.83141C14.744 7.53162 14.3242 7.28992 13.8872 7.07088C15.5643 5.21244 15.2647 2.65596 13.8303 1.21069C12.34 -0.291006 10.0568 -0.406606 8.44622 0.944641C7.65759 1.60616 7.1696 2.46735 7.01338 3.50388C6.80723 4.86895 7.20503 6.05371 8.10532 7.07033C8.05432 7.09799 8.01674 7.11956 7.97863 7.13836C7.24637 7.50507 6.58604 7.97964 6.01913 8.58087C4.93578 9.73079 4.28995 11.1047 4.08917 12.6949C4.07253 12.8254 4.02797 12.8448 3.91791 12.8442C2.90864 12.8409 1.8999 12.8404 0.89063 12.8442C0.777355 12.8448 0.726892 12.8265 0.730113 12.6916C0.749439 11.9842 0.694681 11.2751 0.763397 10.5693C0.95022 8.64891 1.9101 7.29323 3.59903 6.47187C3.79014 6.37894 3.94529 6.38779 4.13534 6.48403C4.8574 6.84964 5.61489 6.88725 6.38687 6.68205C6.60537 6.62397 6.71381 6.41821 6.65691 6.20361C6.59893 5.98292 6.40244 5.89608 6.11577 5.96522C4.24056 6.41434 2.57633 4.72625 3.00527 2.80917C3.29302 1.52264 4.46818 0.659789 5.74373 0.788664C6.12811 0.827382 6.47492 0.961234 6.81367 1.1421C7.03753 1.26157 7.24368 1.19188 7.34407 0.991655C7.44124 0.798067 7.37521 0.596735 7.16208 0.472285C6.43895 0.0491563 5.6632 -0.102949 4.84934 0.0701744C2.33099 0.604478 1.34373 3.70023 3.05144 5.68147C3.09009 5.72627 3.15344 5.75946 3.14915 5.83413C3.06325 5.88114 2.98111 5.92484 2.90005 5.97075C1.52089 6.74897 0.625427 7.92323 0.186286 9.47525C0.107369 9.75291 0.108443 10.0483 0 10.3182C0 11.3359 0 12.3536 0 13.3714C0.129917 13.5666 0.314593 13.6064 0.533626 13.6048C1.6143 13.5976 2.69497 13.607 3.77565 13.5965C3.97428 13.5948 4.04139 13.6319 4.03763 13.8553C4.02314 14.7397 4.03065 15.6247 4.03226 16.5097C4.0328 16.877 4.15252 16.9998 4.50522 16.9998C8.82792 17.0003 13.1506 16.9998 17.4738 16.9998C17.8411 16.9998 17.9565 16.8803 17.957 16.4981C17.9581 15.628 17.9645 14.758 17.9527 13.888C17.9495 13.6684 17.9898 13.5915 18.2249 13.5948C19.2911 13.6097 20.3578 13.6014 21.424 13.6014C21.4954 13.6014 21.5673 13.6026 21.6382 13.5959C21.8497 13.5766 21.9893 13.4438 21.9861 13.227C21.9726 12.2463 22.0467 11.2646 21.9469 10.2872ZM7.69893 4.15544C7.71128 2.2898 9.186 0.770411 10.9909 0.763774C12.7942 0.757137 14.3038 2.31414 14.292 4.16816C14.2801 6.03712 12.814 7.54324 11 7.54988C9.18761 7.55651 7.68712 6.01334 7.69893 4.15544ZM17.2231 15.435C17.2264 15.6485 17.2156 15.8631 17.2264 16.0761C17.2333 16.2105 17.1979 16.2514 17.0621 16.2481C16.6262 16.2381 16.1892 16.2442 15.7533 16.2442C14.1653 16.2442 12.5767 16.2442 10.9887 16.2442C8.99273 16.2442 6.99673 16.2403 5.00073 16.2497C4.79673 16.2508 4.75915 16.1872 4.76345 15.9953C4.78814 15.0158 4.72372 14.0345 4.80264 13.0561C4.93041 11.4676 5.56174 10.118 6.66281 9.00345C7.21308 8.44647 7.85515 8.02666 8.56218 7.70862C8.70391 7.64501 8.81289 7.63948 8.9514 7.72853C9.62353 8.16217 10.3649 8.34801 11.1535 8.31593C11.8268 8.28828 12.4624 8.10796 13.0352 7.7324C13.1775 7.63893 13.2918 7.63671 13.4427 7.70862C15.5809 8.72468 16.8296 10.4327 17.1695 12.8288C17.2924 13.6911 17.2097 14.5661 17.2231 15.435Z" fill="white"/>
</svg>
