<svg width="19" height="19" viewBox="0 0 19 19" fill="none" xmlns="http://www.w3.org/2000/svg">
<path d="M9.47894 17.4166C8.87708 17.4054 8.27983 17.3427 7.69445 17.2015C3.56251 16.2074 0.971799 12.2268 1.73583 8.05091C2.46426 4.07032 6.09982 1.28707 10.1454 1.62418C12.2958 1.80295 14.0723 2.7318 15.4969 4.34541C15.696 4.57037 15.8845 4.80588 16.0579 5.09944C15.9445 5.09944 15.8661 5.09944 15.7876 5.09944C15.2358 5.09944 14.6834 5.09284 14.1317 5.10208C13.6887 5.11 13.3597 5.45897 13.3591 5.89767C13.3591 6.32911 13.6735 6.68073 14.1086 6.68402C15.3525 6.69458 16.5965 6.69458 17.8404 6.68468C18.2913 6.68139 18.6018 6.34164 18.6031 5.8858C18.6057 4.67394 18.6051 3.46208 18.6031 2.25022C18.6024 1.77591 18.2597 1.4322 17.8008 1.43616C17.3565 1.44012 17.0249 1.78382 17.0223 2.24825C17.0197 2.70805 17.0217 3.16786 17.0217 3.68176C16.9676 3.62305 16.9505 3.60655 16.9353 3.58874C14.5114 0.705882 11.4243 -0.47299 7.72543 0.171531C2.54732 1.07333 -0.890477 6.2671 0.203157 11.4134C1.14715 15.8557 5.01541 19.0229 9.46905 18.9998C9.95028 18.9972 10.2957 18.6693 10.2977 18.2135C10.299 17.7563 9.95951 17.4258 9.47894 17.4166Z" fill="#9900B8"/>
<path d="M17.3699 13.3343C17.0251 13.1192 16.5663 13.1825 16.3336 13.5176C16.0191 13.9709 15.6961 14.4155 15.3514 14.8456C15.1549 15.0904 15.1602 15.3846 15.3052 15.6603C15.4509 15.9381 15.6928 16.0746 16.0066 16.0819C16.2149 16.0858 16.4048 16.0199 16.5439 15.8721C16.9783 15.409 17.3652 14.9056 17.6652 14.3456C17.8583 13.9841 17.7146 13.5493 17.3699 13.3343Z" fill="#9900B8"/>
<path d="M18.998 9.45486C18.9842 9.06762 18.6586 8.7325 18.2788 8.71007C17.855 8.685 17.4522 8.96669 17.4291 9.3625C17.3962 9.92192 17.3388 10.4767 17.2775 11.0328C17.2314 11.4557 17.5662 11.8225 17.9822 11.8687C18.3843 11.9129 18.7693 11.6318 18.8464 11.2228C18.9354 10.7531 18.9868 10.2788 18.9987 9.86915C18.9987 9.68575 19.002 9.57031 18.998 9.45486Z" fill="#9900B8"/>
<path d="M13.2597 16.482C12.7593 16.7063 12.2537 16.9135 11.7422 17.1087C11.3763 17.2486 11.2062 17.6358 11.2939 18.0224C11.371 18.3641 11.7052 18.6188 12.166 18.6161C12.785 18.4473 13.4785 18.2216 14.0758 17.7909C14.3711 17.5778 14.3981 17.1134 14.2017 16.8033C13.998 16.4814 13.6044 16.327 13.2597 16.482Z" fill="#9900B8"/>
</svg>
