<svg width="42" height="47" viewBox="0 0 42 47" fill="none" xmlns="http://www.w3.org/2000/svg">
<path d="M19.1959 13.9881C17.0714 14.0454 15.0373 15.9086 14.8149 18.0155C14.7469 18.6615 14.7469 18.6615 15.3734 18.6615C15.5551 18.6615 15.7397 18.645 15.9194 18.6654C16.2253 18.7003 16.3468 18.6255 16.3924 18.2739C16.5702 16.9062 17.4648 15.9513 18.7859 15.6356C19.4494 15.4773 19.4494 15.4773 19.4494 14.7711C19.4494 14.5894 19.4387 14.4058 19.4523 14.2251C19.4678 14.025 19.3989 13.9833 19.1959 13.9881Z" fill="#64009C"/>
<path d="M21.0599 18.5837C21.2677 18.8207 21.7457 18.6147 22.1002 18.6672C22.4946 18.7255 22.5616 18.5633 22.5607 18.197C22.5461 14.3435 22.5558 10.4891 22.5451 6.63556C22.5442 6.30432 22.5956 6.1557 22.9725 6.06147C25.163 5.51264 26.5395 4.11481 27.0747 1.92044C27.1515 1.60668 27.268 1.54257 27.5536 1.54742C28.3579 1.56297 29.1622 1.57268 29.9656 1.54257C30.29 1.52994 30.4017 1.63776 30.4736 1.93792C30.9943 4.10606 32.3513 5.48058 34.5 6.03816C34.908 6.14404 34.9721 6.31306 34.9711 6.67733C34.9595 10.288 34.9614 13.8996 34.9682 17.5103C34.9692 17.8843 34.7973 18.3806 35.0518 18.5982C35.2655 18.7808 35.7473 18.6332 36.1077 18.6662C36.4496 18.6973 36.5671 18.607 36.5662 18.231C36.5526 13.0118 36.5564 7.79249 36.5574 2.57321C36.5574 2.23808 36.5166 1.91072 36.4136 1.58919C36.1358 0.716886 35.4675 0.281703 34.6574 0C30.7417 0 26.827 0 22.9113 0C21.3969 0.582834 20.9996 1.17052 20.9996 2.82674C20.9996 7.74295 20.9987 12.6591 21.0006 17.5744C20.9996 17.9212 20.884 18.3835 21.0599 18.5837ZM32.2386 1.54839C32.8584 1.56102 33.4781 1.53771 34.0969 1.55714C34.6768 1.57559 34.941 1.85535 34.9624 2.43333C34.9731 2.71989 34.9643 3.00742 34.9643 3.29495C34.9643 3.62717 34.9624 3.95938 34.9653 4.29257C34.9672 4.46451 34.9721 4.57524 34.7215 4.49948C33.3392 4.08275 32.464 3.17062 32.0298 1.81164C31.9695 1.62125 32.023 1.54451 32.2386 1.54839ZM22.5568 2.42847C22.5743 1.87867 22.8599 1.57948 23.4019 1.56005C24.1091 1.53577 24.8182 1.55422 25.5302 1.55422C25.3 2.95011 24.0896 4.22943 22.7783 4.51405C22.5733 4.55873 22.548 4.51016 22.549 4.33434C22.5548 3.69905 22.5364 3.06279 22.5568 2.42847Z" fill="#64009C"/>
<path d="M41.9963 29.032C41.9953 28.5919 41.9594 28.1519 41.7544 27.7507C41.2969 26.8561 40.5538 26.4219 39.5552 26.4092C38.8772 26.4005 38.8772 26.4005 38.8772 25.7089C38.8772 24.753 38.8791 23.7972 38.8762 22.8413C38.8752 22.5392 38.8762 22.2352 38.7937 21.9399C38.4779 20.814 37.6066 20.205 36.2894 20.205C30.6602 20.203 25.031 20.204 19.4018 20.204C13.8338 20.204 8.26482 20.203 2.69682 20.2059C2.39472 20.2059 2.09164 20.1875 1.79343 20.2681C0.632617 20.5838 0.00121376 21.4736 0.00121376 22.8335C-0.000729022 29.8887 -0.000729022 36.9439 0.00412793 44.0001C0.00412793 44.3003 0.0284127 44.6102 0.104181 44.8996C0.38977 45.9866 1.29316 46.6209 2.52488 46.6209C13.7979 46.6219 25.0718 46.6219 36.3448 46.6209C36.4507 46.6209 36.5575 46.6209 36.6634 46.617C37.8009 46.5743 38.8024 45.6593 38.8374 44.5169C38.8898 42.7888 38.8811 41.0588 38.8675 39.3297C38.8646 38.945 38.9714 38.8576 39.3435 38.8605C41.0346 38.8741 41.9924 37.9124 41.9963 36.2232C42.0021 33.8268 42.0002 31.4294 41.9963 29.032ZM37.3016 43.9545C37.3016 44.8171 37.0549 45.0677 36.1981 45.0677C32.8293 45.0686 29.4605 45.0677 26.0918 45.0677C18.3216 45.0677 10.5524 45.0677 2.7823 45.0677C1.8012 45.0677 1.59235 44.8559 1.59235 43.8651C1.59235 36.8692 1.59235 29.8732 1.59235 22.8773C1.59235 21.9826 1.81771 21.7611 2.72596 21.7611C8.29494 21.7611 13.8649 21.7611 19.4339 21.7611C25.0184 21.7611 30.6029 21.7611 36.1874 21.7611C37.0636 21.7611 37.3016 21.9962 37.3016 22.8578C37.3016 24.9366 37.2938 27.0163 37.3103 29.0951C37.3133 29.4283 37.2423 29.5235 36.8946 29.5196C35.0431 29.4992 33.1917 29.508 31.3402 29.5109C29.7384 29.5138 28.7553 30.49 28.7505 32.0851C28.7456 33.4965 28.7446 34.9079 28.7505 36.3193C28.7573 37.8813 29.749 38.8654 31.3198 38.8692C33.1713 38.8741 35.0227 38.8819 36.8742 38.8605C37.2433 38.8566 37.3142 38.9683 37.3103 39.3112C37.2919 40.8586 37.3026 42.407 37.3016 43.9545ZM40.4032 36.3446C40.4023 36.9983 40.1507 37.2713 39.5086 37.2732C36.7479 37.28 33.9872 37.281 31.2256 37.2723C30.6097 37.2703 30.3503 37.0022 30.3455 36.3776C30.3358 34.9361 30.3377 33.4955 30.3445 32.054C30.3474 31.3536 30.6 31.0991 31.3062 31.0952C32.7623 31.0865 34.2184 31.0923 35.6755 31.0923C37.117 31.0923 38.5576 31.1001 39.9991 31.0855C40.2993 31.0826 40.4178 31.136 40.4139 31.4741C40.3945 33.0982 40.4071 34.7214 40.4032 36.3446ZM40.3984 29.438C40.3518 29.5167 40.276 29.5099 40.2022 29.5099C40.0215 29.5099 39.8398 29.5099 39.6592 29.5099C38.8782 29.5099 38.8704 29.5099 38.883 28.7367C38.8869 28.489 38.7529 28.1257 38.9646 28.0159C39.2434 27.8721 39.6174 27.9401 39.935 28.0509C40.3207 28.1878 40.6101 29.0805 40.3984 29.438Z" fill="#64009C"/>
<path d="M11.6548 17.5374C11.6548 18.6643 11.6548 18.6487 12.7778 18.6711C13.1459 18.6788 13.2605 18.5963 13.2576 18.2067C13.2382 15.8715 13.2508 13.5363 13.243 11.2001C13.2421 10.9398 13.2858 10.8038 13.5801 10.7329C15.7978 10.2025 17.1966 8.82797 17.7357 6.6064C17.8095 6.30042 17.931 6.19745 18.2486 6.21299C18.6352 6.23145 19.1491 6.38978 19.3813 6.14694C19.6134 5.90506 19.4123 5.39508 19.4551 5.00653C19.4891 4.6918 19.357 4.63934 19.0743 4.64128C17.4968 4.65391 15.9202 4.64711 14.3427 4.64711C12.598 4.64808 11.6577 5.59033 11.6558 7.34563C11.6539 9.12036 11.6558 10.8941 11.6558 12.6688C11.6548 14.292 11.6548 15.9152 11.6548 17.5374ZM13.2479 7.97606C13.2479 7.67396 13.2421 7.37089 13.2498 7.06879C13.2625 6.56949 13.483 6.28196 13.9687 6.25185C14.6467 6.21008 15.3286 6.23436 16.0086 6.22271C16.233 6.21882 16.198 6.34801 16.1737 6.48984C15.9814 7.60208 14.6059 8.96008 13.4723 9.17573C13.2634 9.21556 13.243 9.13882 13.246 8.97465C13.2518 8.64146 13.2479 8.30828 13.2479 7.97606Z" fill="#64009C"/>
<path d="M24.0974 12.4192C24.0926 14.972 26.2189 17.1081 28.7659 17.109C31.3022 17.11 33.4606 14.9516 33.4509 12.4231C33.4412 9.90424 31.31 7.76718 28.7941 7.75164C26.2587 7.73707 24.1023 9.87996 24.0974 12.4192ZM31.851 12.4367C31.8491 14.1463 30.4707 15.5218 28.7649 15.5169C27.0669 15.5121 25.6604 14.1094 25.6662 12.4289C25.673 10.7367 27.0708 9.35055 28.7708 9.35055C30.4824 9.35055 31.853 10.7241 31.851 12.4367Z" fill="#64009C"/>
<path d="M2.39961 18.5731C2.64828 18.8344 3.17089 18.6197 3.57208 18.6663C3.86932 18.7013 3.92275 18.5721 3.91789 18.3069C3.90235 17.5182 3.93343 16.7284 3.90332 15.9416C3.88972 15.5851 4.00434 15.4627 4.34724 15.3772C6.5047 14.8352 7.86367 13.4616 8.40862 11.312C8.49702 10.9613 8.62816 10.8913 8.94969 10.8952C10.1775 10.9069 10.1688 10.8981 10.1503 9.65768C10.1464 9.37889 10.0697 9.29633 9.78994 9.29827C8.13663 9.30992 6.48333 9.29244 4.83002 9.30798C3.32049 9.32158 2.34327 10.3241 2.33744 11.8365C2.33355 12.8681 2.33647 13.8988 2.33647 14.9304C2.33647 15.7794 2.33355 16.6293 2.33744 17.4783C2.33938 17.8543 2.20727 18.3701 2.39961 18.5731ZM3.91206 12.6253C3.91789 12.6253 3.92275 12.6253 3.92858 12.6253C3.92858 12.2931 3.90235 11.9579 3.9344 11.6296C3.98006 11.1595 4.23651 10.9215 4.69889 10.9088C5.34875 10.8923 5.99958 10.9059 6.64944 10.8981C6.85343 10.8952 6.91366 10.9428 6.84663 11.1604C6.42505 12.5175 5.52943 13.3927 4.18502 13.824C4.00046 13.8832 3.90041 13.8473 3.90915 13.6229C3.9208 13.2907 3.91206 12.9575 3.91206 12.6253Z" fill="#64009C"/>
<path d="M33.4859 32.6201C32.6632 32.5744 31.9113 33.2758 31.8627 34.1335C31.8161 34.9563 32.5184 35.7091 33.3752 35.7567C34.197 35.8024 34.9527 35.0981 34.9984 34.2443C35.044 33.4215 34.3408 32.6667 33.4859 32.6201Z" fill="#64009C"/>
</svg>
