<svg width="36" height="36" viewBox="0 0 36 36" fill="none" xmlns="http://www.w3.org/2000/svg">
<path d="M33.2684 33.2476H28.8899L28.9001 35.9791L35.9998 35.9688L35.9793 17.0944H33.2581L33.2684 33.2476Z" fill="#64009C"/>
<path d="M0.0204801 28.2043L0.0307101 35.9996L21.6673 35.9792V33.2477L2.7519 33.2682V28.2043H0.0204801Z" fill="#64009C"/>
<path d="M0 0.0307101L0.0204601 23.3962H2.74165L2.73142 2.7519H7.7953V0.0204801L0 0.0307101Z" fill="#64009C"/>
<path d="M35.9687 0L17.442 0.0102301V2.74165L33.2475 2.73142V7.7953H35.9789L35.9687 0Z" fill="#64009C"/>
<path d="M16.7771 11.9179H16.1735V11.9281H16.1633C16.1633 12.3373 16.1735 12.7363 16.1735 13.1455H16.7771V11.9179Z" fill="#64009C"/>
<path d="M16.7877 24.1326H17.9846V23.5393H17.381V22.9357H16.7877V24.1326Z" fill="#64009C"/>
<path d="M22.2915 18.0458V18.6596H22.8848V18.6494H22.895V17.432H22.8848V17.4218H21.6777V17.432H21.6674V18.0458H22.2915Z" fill="#64009C"/>
<path d="M16.1635 17.4525H15.5804V18.0356H16.1635V17.4525Z" fill="#64009C"/>
<path d="M13.7082 21.7389H10.6801V24.7465H13.7082V21.7389ZM13.0842 24.1429H11.2939V22.3527H13.0842V24.1429Z" fill="#64009C"/>
<path d="M16.1432 23.4574V22.9255C15.9489 22.9255 15.7545 22.9255 15.5601 22.9255V22.9357H15.5499V23.5393H15.5601V23.5495H16.1432V23.4574Z" fill="#64009C"/>
<path d="M16.7772 18.639H17.3603V18.0457H17.0534H16.8283H16.1736V18.6595H14.9664V19.2529H15.4268H15.7644H16.7772V18.639Z" fill="#64009C"/>
<path d="M19.2325 13.7595V13.1354H18.6187V11.3247H18.6085V11.3145H17.9947V11.9488H17.3911V13.1457H17.4013V13.1559H18.0254V14.9666H18.6289V13.7697L19.2325 13.7595Z" fill="#64009C"/>
<path d="M16.7773 20.5113H15.5804V21.0944H16.7773V20.5113Z" fill="#64009C"/>
<path d="M14.3321 17.7287C14.3321 17.831 14.3321 17.9333 14.3321 18.0356H14.9152V17.4321H14.3321C14.3321 17.5344 14.3321 17.6367 14.3321 17.7287Z" fill="#64009C"/>
<path d="M14.3223 16.8386H13.7391V17.4217H14.046H14.3223V16.8386Z" fill="#64009C"/>
<path d="M14.3223 19.2838H13.7391V19.8566H14.3223V19.2838Z" fill="#64009C"/>
<path d="M14.3223 18.0457H13.7391V18.6288H14.3223V18.0457Z" fill="#64009C"/>
<path d="M12.4703 16.2352H11.8974V16.8081H12.4703V16.2352Z" fill="#64009C"/>
<path d="M23.5088 19.2632V18.6494H22.895V18.6596H22.8848V19.2632H23.4986H23.5088Z" fill="#64009C"/>
<path d="M24.1223 19.2631H24.7259H24.7361V18.0355H24.1223V18.0457H24.1121V19.2631H24.1223Z" fill="#64009C"/>
<path d="M24.1125 19.2633H23.5089H23.4987V19.8771H24.1125V19.8668H24.1227V19.2633H24.1125Z" fill="#64009C"/>
<path d="M18.5981 19.8974H18.015V20.4601H18.5981V19.8974Z" fill="#64009C"/>
<path d="M17.3603 19.2633H16.7772V19.8464H17.3603V19.2633Z" fill="#64009C"/>
<path d="M21.033 18.0559H18.6289V18.6595H19.2325V19.2426C19.4371 19.2529 19.6314 19.2631 19.8463 19.2733V19.8564H20.4396V18.6391H21.033V18.0559Z" fill="#64009C"/>
<path d="M18.6186 11.3042V11.3144H19.2018V10.7006H18.6186V10.7108H18.6084V11.3042H18.6186Z" fill="#64009C"/>
<path d="M24.1121 21.1045H22.9152V21.6876H24.1121V21.1045Z" fill="#64009C"/>
<path d="M21.6569 19.2838H21.084V19.8566H21.6569V19.2838Z" fill="#64009C"/>
<path d="M21.6879 13.7389H24.7058V10.7211H21.6879V13.7389ZM22.3017 11.3349H24.092V13.1354H22.3017V11.3349Z" fill="#64009C"/>
<path d="M8.92083 26.5061H26.4654V8.96154H8.92083V26.5061ZM21.0844 10.1073H25.3196V14.3425H21.0844V10.1073ZM25.3196 24.1327H24.7467V23.5598H25.3196V24.1327ZM24.7263 15.6008L23.5293 15.5906V15.0075H24.7263V15.6008H24.9411H25.1559H25.3094V16.7978H24.1227V16.2249H24.7263V15.6008ZM10.0768 10.1073H14.3121V14.3425H10.0768V10.1073ZM14.3223 25.3603H10.0666V21.1251H14.3223V25.3603ZM24.092 24.1429C23.9079 24.1532 23.7237 24.1634 23.5191 24.1634V24.7363H22.9053V24.1634H22.3017V23.5496H21.6879V22.946H19.8465V21.7286H19.243V22.9256H18.6291V24.1429H19.2123V24.767H19.2225V24.7772H19.8261V23.5701H20.4296V24.767H22.2608V25.3603H19.2327V24.7772H19.2225V24.767H18.936H18.6189V25.3705H16.1842V24.1634H15.5601V24.1736H15.5499V25.3705H14.9668V24.1736H15.5499V24.1634H15.5601V23.5598H15.5499V23.5496H14.9668V22.946H15.5499V22.9358H15.5601V22.6493V21.7286H14.9463V20.501H10.0666V19.9077H10.6702V19.2837H10.6599V19.2734H10.0768V18.6903H10.6599V19.2734H10.6702V19.2837H10.9873H11.0998H11.2635V19.877H13.0742V18.0663H12.7878H12.5013V18.6494H11.284V15.6213H11.2737V15.6111H10.6804V16.2044H10.0666V15.028H11.2737C11.2737 15.2223 11.2737 15.4167 11.2737 15.6111H11.284V15.6213H11.6011H11.7136H11.8773V15.028H12.4809V15.6213H13.7187V15.6111H13.729V15.0075H14.6497H14.9463V14.9973H14.9566V14.4039V12.5727H15.5704V11.9487H15.5499V11.9385H14.9668V10.7211H16.1637V10.7109H16.1739V10.5779V10.1175H17.3811V10.7109H18.6087V10.7006H18.6189V10.5677V10.1073H19.8261V10.6802H20.4296V11.294C20.2455 11.3042 20.0614 11.3144 19.8465 11.3247V11.9078H19.243V12.5216H19.8158V13.1354H20.4399V15.5702H21.0434V14.9973H22.8746V15.5804H21.6879C21.6777 15.7952 21.6675 15.9896 21.6572 16.1942H21.0741V16.808H20.5933H20.4501V16.8182H20.4399V17.432H21.6675V17.4218H21.6777V16.8182H22.271V16.2249H22.8849V16.8182V17.4116H22.8951V17.4218H23.0281H23.4884V18.0356H24.1022V18.0254H24.1125V17.9026V17.4525H25.3094V19.2632H24.7263V19.2734H24.716V19.877H24.1125V19.8872H24.1022C24.1022 20.2862 24.1125 20.6954 24.1125 21.1046H24.7058V20.5113H25.2991V22.322H22.9155V23.5291H23.4987V22.9665H24.092V24.1429ZM25.3196 25.3603H24.1227V24.7874H25.3196V25.3603Z" fill="#64009C"/>
<path d="M20.4701 22.2913H22.2501V20.4908H20.4701V22.2913ZM21.0737 21.1251H21.6568V21.6877H21.0737V21.1251Z" fill="#64009C"/>
<path d="M17.3913 22.3119V22.9257H17.9948V22.3221V22.3119H18.0051H18.5882V21.7083H18.0051H17.9948V21.6981V21.0945H17.3708H16.7877C16.7877 21.4935 16.7877 21.9027 16.7877 22.3119H17.3913Z" fill="#64009C"/>
<path d="M16.1735 11.3042V11.3144H16.7566V10.7006H16.1735V10.7108H16.1633V11.3042H16.1735Z" fill="#64009C"/>
<path d="M10.6906 13.7389H13.7085V10.7211H10.6906V13.7389ZM11.3044 11.3349H13.0947V13.1251H11.3044V11.3349Z" fill="#64009C"/>
<path d="M12.491 17.4525H11.9079V18.0356H12.491V17.4525Z" fill="#64009C"/>
<path d="M20.4395 16.8079H20.4497V16.1941H19.8257V13.7594H19.2324V13.7696H19.2221V15.611H18.015V16.2146H18.6288V17.4115H19.8462V16.8182H20.4395V16.8079Z" fill="#64009C"/>
<path d="M16.7771 22.9256V22.322H16.1633V22.4755C16.1633 22.6289 16.1633 22.7722 16.1633 22.9052C16.3679 22.9256 16.5725 22.9256 16.7771 22.9256Z" fill="#64009C"/>
<path d="M16.1637 11.9181H16.1739V11.3145H16.1637V11.3043H15.5499V11.9181H15.5601V11.9283H16.1637V11.9181Z" fill="#64009C"/>
<path d="M15.5496 16.2147L15.5598 15.6214H16.1429V16.2045L15.5496 16.2147V16.5114V16.8388H16.7874V17.4117H17.391V13.1559H17.3808V13.1457C17.1762 13.1457 16.9818 13.1559 16.7772 13.1559V14.9667H16.1634V13.1559H15.5496V14.9769H14.9562V14.9871H14.9358V15.5907H13.7184V15.6009H13.7082V16.2147H15.5496Z" fill="#64009C"/>
<path d="M19.2325 24.7567L19.2223 24.7669L19.2325 24.7567Z" fill="#64009C"/>
<path d="M11.2735 15.6008L11.2838 15.5906L11.2735 15.6008Z" fill="#64009C"/>
<path d="M16.7772 21.1047L16.7874 21.0945L16.7772 21.1047Z" fill="#64009C"/>
<path d="M10.6676 19.2601L10.6596 19.2665L10.6661 19.2745L10.674 19.2681L10.6676 19.2601Z" fill="#64009C"/>
<path d="M16.1428 22.9152L16.153 22.9255L16.1428 22.9152Z" fill="#64009C"/>
<path d="M19.2243 24.7535L19.2163 24.7599L19.2227 24.7679L19.2307 24.7615L19.2243 24.7535Z" fill="#64009C"/>
<path d="M12.4909 18.0457L12.5011 18.0355L12.4909 18.0457Z" fill="#64009C"/>
<path d="M11.2838 15.5906L11.2735 15.6008H11.2838V15.5906Z" fill="#64009C"/>
<path d="M15.5586 24.1513L15.5514 24.1585L15.5586 24.1658L15.5658 24.1585L15.5586 24.1513Z" fill="#64009C"/>
<path d="M14.3423 18.0457L14.3321 18.0355L14.3423 18.0457Z" fill="#64009C"/>
<path d="M14.3323 17.4218L14.3221 17.432L14.3323 17.4218Z" fill="#64009C"/>
<path d="M24.1121 21.0945H24.1223V21.1047V21.0945H24.1121Z" fill="#64009C"/>
<path d="M16.1633 18.0457L16.1735 18.0355L16.1633 18.0457Z" fill="#64009C"/>
<path d="M12.4909 18.0457H12.5011V18.0355L12.4909 18.0457Z" fill="#64009C"/>
<path d="M24.7314 15.5879L24.7235 15.5943L24.7299 15.6023L24.7378 15.5959L24.7314 15.5879Z" fill="#64009C"/>
<path d="M11.2735 15.5906V15.6008L11.2838 15.5906H11.2735Z" fill="#64009C"/>
<path d="M15.5601 24.1533H15.5499V24.1635H15.5601V24.1533Z" fill="#64009C"/>
<path d="M24.7362 15.5906H24.726V15.6008V15.5906H24.7362Z" fill="#64009C"/>
<path d="M10.6699 19.2633H10.6596V19.2735H10.6699V19.2633Z" fill="#64009C"/>
<path d="M13.7187 15.5906V15.6008H13.7289L13.7187 15.5906Z" fill="#64009C"/>
<path d="M15.5556 16.1992L15.5484 16.2065L15.5556 16.2137L15.5629 16.2064L15.5556 16.1992Z" fill="#64009C"/>
<path d="M14.9462 14.9869V14.9767H14.936L14.9462 14.9869Z" fill="#64009C"/>
<path d="M14.9462 14.9869L14.936 14.9767V14.9869H14.9462Z" fill="#64009C"/>
<path d="M13.7289 15.5906H13.7187L13.7289 15.6008V15.5906Z" fill="#64009C"/>
<path d="M20.4396 16.8181H20.4499L20.4396 16.8079V16.8181Z" fill="#64009C"/>
<path d="M20.4499 16.8181V16.8079H20.4396L20.4499 16.8181Z" fill="#64009C"/>
<path d="M17.3811 13.1559H17.3913V13.1457L17.3811 13.1559Z" fill="#64009C"/>
<path d="M17.3811 13.1457V13.1559L17.3913 13.1457H17.3811Z" fill="#64009C"/>
<path d="M16.1735 18.0355L16.1633 18.0457H16.1735V18.0355Z" fill="#64009C"/>
<path d="M21.6674 17.4218V17.432H21.6777L21.6674 17.4218Z" fill="#64009C"/>
<path d="M22.895 17.432V17.4218L22.8848 17.432H22.895Z" fill="#64009C"/>
<path d="M21.6777 17.4218H21.6674L21.6777 17.432V17.4218Z" fill="#64009C"/>
<path d="M22.895 17.4218H22.8848V17.432L22.895 17.4218Z" fill="#64009C"/>
<path d="M16.7772 21.1047H16.7874V21.0945L16.7772 21.1047Z" fill="#64009C"/>
<path d="M24.1121 21.0945V21.1047H24.1223V21.0945H24.1121Z" fill="#64009C"/>
<path d="M16.7772 21.0945V21.1047L16.7874 21.0945H16.7772Z" fill="#64009C"/>
<path d="M15.5601 22.9255H15.5499L15.5601 22.9357V22.9255Z" fill="#64009C"/>
<path d="M15.5499 23.5496H15.5601V23.5394L15.5499 23.5496Z" fill="#64009C"/>
<path d="M16.153 22.9255C16.1428 22.9255 16.1428 22.9152 16.1428 22.9152V22.9255C16.153 22.9255 16.153 22.9255 16.153 22.9255Z" fill="#64009C"/>
<path d="M15.5601 22.9357L15.5499 22.9255V22.9357H15.5601Z" fill="#64009C"/>
<path d="M15.5499 23.5394V23.5496L15.5601 23.5394H15.5499Z" fill="#64009C"/>
<path d="M16.153 22.9255V22.9152H16.1428L16.153 22.9255Z" fill="#64009C"/>
<path d="M14.3221 17.4218V17.432L14.3323 17.4218H14.3221Z" fill="#64009C"/>
<path d="M12.4909 18.0355V18.0457L12.5011 18.0355H12.4909Z" fill="#64009C"/>
<path d="M14.3221 17.432H14.3323V17.4218L14.3221 17.432Z" fill="#64009C"/>
<path d="M14.3321 18.0355L14.3423 18.0457V18.0355H14.3321Z" fill="#64009C"/>
<path d="M16.1633 18.0355V18.0457L16.1735 18.0355H16.1633Z" fill="#64009C"/>
<path d="M14.3321 18.0457H14.3423L14.3321 18.0355V18.0457Z" fill="#64009C"/>
<path d="M24.1121 19.8769H24.1223L24.1121 19.8667V19.8769Z" fill="#64009C"/>
<path d="M24.1223 19.8769V19.8667H24.1121L24.1223 19.8769Z" fill="#64009C"/>
<path d="M22.8848 18.6494V18.6596H22.895L22.8848 18.6494Z" fill="#64009C"/>
<path d="M22.895 18.6494H22.8848L22.895 18.6596V18.6494Z" fill="#64009C"/>
<path d="M18.6186 10.7006H18.6084L18.6186 10.7108V10.7006Z" fill="#64009C"/>
<path d="M18.6084 10.7006V10.7108H18.6186L18.6084 10.7006Z" fill="#64009C"/>
<path d="M18.6186 11.3145V11.3043L18.6084 11.3145H18.6186Z" fill="#64009C"/>
<path d="M18.6186 11.3043H18.6084V11.3145L18.6186 11.3043Z" fill="#64009C"/>
<path d="M16.1735 10.7006H16.1633L16.1735 10.7108V10.7006Z" fill="#64009C"/>
<path d="M16.1633 10.7006V10.7108H16.1735L16.1633 10.7006Z" fill="#64009C"/>
<path d="M15.5499 11.9281H15.5601V11.9179L15.5499 11.9281Z" fill="#64009C"/>
<path d="M15.5499 11.9179V11.9281L15.5601 11.9179H15.5499Z" fill="#64009C"/>
<path d="M16.1735 11.9179H16.1633L16.1735 11.9281V11.9179Z" fill="#64009C"/>
<path d="M16.1633 11.9179V11.9281H16.1735L16.1633 11.9179Z" fill="#64009C"/>
<path d="M16.1633 11.3145H16.1735V11.3043L16.1633 11.3145Z" fill="#64009C"/>
<path d="M16.1633 11.3043V11.3145L16.1735 11.3043H16.1633Z" fill="#64009C"/>
<path d="M24.1223 18.0355H24.1121L24.1223 18.0457V18.0355Z" fill="#64009C"/>
<path d="M24.7362 19.2633V19.253H24.726L24.7362 19.2633Z" fill="#64009C"/>
<path d="M24.1121 18.0355V18.0457H24.1223L24.1121 18.0355Z" fill="#64009C"/>
<path d="M16.1633 13.1457V13.1559H16.1735L16.1633 13.1457Z" fill="#64009C"/>
<path d="M16.7874 13.1457H16.7772V13.1559L16.7874 13.1457Z" fill="#64009C"/>
<path d="M16.1735 13.1457H16.1633L16.1735 13.1559V13.1457Z" fill="#64009C"/>
<path d="M15.5601 16.2045H15.5499V16.2147H15.5601V16.2045Z" fill="#64009C"/>
<path d="M16.7874 22.3118H16.7772L16.7874 22.322V22.3118Z" fill="#64009C"/>
<path d="M17.3811 22.9357H17.3913L17.3811 22.9255V22.9357Z" fill="#64009C"/>
<path d="M16.7772 22.9357H16.7874V22.9255L16.7772 22.9357Z" fill="#64009C"/>
<path d="M17.3913 22.9357V22.9255H17.3811L17.3913 22.9357Z" fill="#64009C"/>
<path d="M16.7772 22.3118V22.322H16.7874L16.7772 22.3118Z" fill="#64009C"/>
<path d="M18.0047 21.7081H17.9945V21.7184L18.0047 21.7081Z" fill="#64009C"/>
<path d="M17.9945 22.322H18.0047L17.9945 22.3118V22.322Z" fill="#64009C"/>
<path d="M18.0047 21.7184V21.7081L17.9945 21.7184H18.0047Z" fill="#64009C"/>
<path d="M18.0047 22.322V22.3118H17.9945L18.0047 22.322Z" fill="#64009C"/>
<path d="M17.3811 22.3118V22.322L17.3913 22.3118H17.3811Z" fill="#64009C"/>
<path d="M17.3811 22.322H17.3913V22.3118L17.3811 22.322Z" fill="#64009C"/>
</svg>
