<svg width="11" height="12" viewBox="0 0 11 12" fill="none" xmlns="http://www.w3.org/2000/svg">
<path d="M3.46875 6.75C3.60938 6.75 3.75 6.63281 3.75 6.46875V5.53125C3.75 5.39062 3.60938 5.25 3.46875 5.25H2.53125C2.36719 5.25 2.25 5.39062 2.25 5.53125V6.46875C2.25 6.63281 2.36719 6.75 2.53125 6.75H3.46875ZM6 6.46875V5.53125C6 5.39062 5.85938 5.25 5.71875 5.25H4.78125C4.61719 5.25 4.5 5.39062 4.5 5.53125V6.46875C4.5 6.63281 4.61719 6.75 4.78125 6.75H5.71875C5.85938 6.75 6 6.63281 6 6.46875ZM8.25 6.46875V5.53125C8.25 5.39062 8.10938 5.25 7.96875 5.25H7.03125C6.86719 5.25 6.75 5.39062 6.75 5.53125V6.46875C6.75 6.63281 6.86719 6.75 7.03125 6.75H7.96875C8.10938 6.75 8.25 6.63281 8.25 6.46875ZM6 8.71875V7.78125C6 7.64062 5.85938 7.5 5.71875 7.5H4.78125C4.61719 7.5 4.5 7.64062 4.5 7.78125V8.71875C4.5 8.88281 4.61719 9 4.78125 9H5.71875C5.85938 9 6 8.88281 6 8.71875ZM3.75 8.71875V7.78125C3.75 7.64062 3.60938 7.5 3.46875 7.5H2.53125C2.36719 7.5 2.25 7.64062 2.25 7.78125V8.71875C2.25 8.88281 2.36719 9 2.53125 9H3.46875C3.60938 9 3.75 8.88281 3.75 8.71875ZM8.25 8.71875V7.78125C8.25 7.64062 8.10938 7.5 7.96875 7.5H7.03125C6.86719 7.5 6.75 7.64062 6.75 7.78125V8.71875C6.75 8.88281 6.86719 9 7.03125 9H7.96875C8.10938 9 8.25 8.88281 8.25 8.71875ZM10.5 2.625C10.5 2.01562 9.98438 1.5 9.375 1.5H8.25V0.28125C8.25 0.140625 8.10938 0 7.96875 0H7.03125C6.86719 0 6.75 0.140625 6.75 0.28125V1.5H3.75V0.28125C3.75 0.140625 3.60938 0 3.46875 0H2.53125C2.36719 0 2.25 0.140625 2.25 0.28125V1.5H1.125C0.492188 1.5 0 2.01562 0 2.625V10.875C0 11.5078 0.492188 12 1.125 12H9.375C9.98438 12 10.5 11.5078 10.5 10.875V2.625ZM9.375 10.7344C9.375 10.8281 9.30469 10.875 9.23438 10.875H1.26562C1.17188 10.875 1.125 10.8281 1.125 10.7344V3.75H9.375V10.7344Z" fill="#2E2E2E"/>
</svg>
