<svg width="11" height="7" viewBox="0 0 11 7" fill="none" xmlns="http://www.w3.org/2000/svg">
<path d="M10.4271 3.24479C9.44271 1.3125 7.47396 0 5.25 0C3.00781 0 1.03906 1.3125 0.0546875 3.24479C0.0182292 3.31771 0 3.42708 0 3.51823C0 3.59115 0.0182292 3.70052 0.0546875 3.77344C1.03906 5.70573 3.00781 7 5.25 7C7.47396 7 9.44271 5.70573 10.4271 3.77344C10.4635 3.70052 10.4818 3.59115 10.4818 3.5C10.4818 3.42708 10.4635 3.31771 10.4271 3.24479ZM5.25 6.125C3.79167 6.125 2.625 4.95833 2.625 3.5C2.625 2.0599 3.79167 0.875 5.25 0.875C6.6901 0.875 7.875 2.0599 7.875 3.5V3.51823C7.875 4.95833 6.6901 6.125 5.25 6.125ZM5.25 1.75C5.10417 1.76823 4.90365 1.78646 4.77604 1.82292C4.86719 1.95052 4.95833 2.1875 4.95833 2.35156C4.95833 2.82552 4.55729 3.20833 4.08333 3.20833C3.91927 3.20833 3.68229 3.13542 3.55469 3.04427C3.51823 3.17188 3.5 3.3724 3.5 3.5C3.5 4.46615 4.28385 5.25 5.25 5.25C6.21615 5.25 7 4.46615 7 3.5C7 2.53385 6.21615 1.75 5.25 1.75Z" fill="white"/>
</svg>
