<svg width="20" height="17" viewBox="0 0 20 17" fill="none" xmlns="http://www.w3.org/2000/svg">
<path d="M19.0699 9.75206C19.0312 9.50653 18.8134 9.35422 18.5721 9.39987C18.3047 9.45032 18.1946 9.60215 18.1941 9.92887C18.1936 11.7926 18.1941 13.6564 18.1936 15.5201C18.1936 15.9511 18.0496 16.102 17.6292 16.102C12.3865 16.1025 7.14378 16.1025 1.9011 16.102C1.47919 16.102 1.33473 15.9521 1.33473 15.5221C1.33473 13.985 1.33473 12.448 1.33473 10.911C1.33473 10.565 1.33759 10.2191 1.33378 9.87362C1.33092 9.62665 1.22699 9.47626 1.03248 9.41909C0.675884 9.31482 0.437987 9.52719 0.437511 9.95962C0.435604 11.8234 0.435604 13.6871 0.437988 15.5509C0.438465 15.7873 0.462303 16.0227 0.570522 16.2399C0.839402 16.779 1.28468 17.0005 1.87011 17C4.49455 16.9962 7.11899 16.9986 9.74391 16.9986C11.4025 16.9986 13.0611 16.999 14.7196 16.9986C15.7489 16.9981 16.7787 16.9957 17.8079 16.9957C17.9958 16.9957 18.1736 16.9505 18.339 16.8674C18.893 16.5897 19.0923 16.1106 19.0918 15.5149C19.0894 13.6766 19.0913 11.8388 19.0899 10.0005C19.0908 9.91686 19.0827 9.83374 19.0699 9.75206Z" fill="white"/>
<path d="M6.70952 2.23268C6.9231 2.21538 7.07423 2.07076 7.09282 1.85311C7.10426 1.71954 7.10045 1.58452 7.10235 1.45047C7.10855 1.0512 7.25873 0.901288 7.65919 0.896964C7.67206 0.896964 7.68445 0.896964 7.69732 0.896964C9.07557 0.896964 10.4538 0.896484 11.8325 0.897925C11.9141 0.897925 11.9965 0.910418 12.0776 0.921949C12.2616 0.948855 12.3641 1.05744 12.4037 1.24146C12.449 1.45095 12.4075 1.66332 12.4366 1.87233C12.4666 2.08806 12.6316 2.23028 12.8585 2.2346C13.0868 2.23893 13.279 2.10776 13.3009 1.89779C13.33 1.61816 13.3467 1.33227 13.2852 1.05648C13.1407 0.409283 12.6573 0.0138533 11.9937 0.00520482C11.2504 -0.00488513 10.5072 0.00280245 9.76446 0.00280245C9.76446 0.0037634 9.76446 0.00472435 9.76446 0.00568529C8.99595 0.00568529 8.22745 -0.00152181 7.45895 0.00904861C7.07947 0.0143338 6.76673 0.184422 6.51931 0.477511C6.15365 0.910898 6.18464 1.42549 6.23994 1.93575C6.26139 2.14091 6.47688 2.25142 6.70952 2.23268Z" fill="white"/>
<path d="M19.3979 3.88362C19.1233 3.32435 18.6471 3.12303 18.0564 3.12303C12.5329 3.12399 7.00942 3.12351 1.48546 3.12351C1.45352 3.12351 1.42205 3.12303 1.39011 3.12351C0.545333 3.13841 0.00232874 3.69095 0.00137527 4.54043C-5.49472e-05 5.46294 -0.00100796 6.38545 0.00185247 7.30796C0.00375942 7.96957 0.423765 8.50194 1.06259 8.64848C1.75339 8.80704 2.44608 8.95791 3.13783 9.1131C4.70057 9.46336 6.26285 9.81459 7.82559 10.1629C7.93906 10.1884 7.98911 10.2268 7.98482 10.3604C7.97243 10.7506 7.97767 11.1417 7.98101 11.5328C7.98435 11.9244 8.13642 12.0767 8.52449 12.0771C9.35067 12.0786 10.1773 12.0786 11.0035 12.0771C11.3921 12.0767 11.5446 11.9248 11.548 11.5337C11.5513 11.1623 11.5604 10.79 11.5437 10.4195C11.5356 10.2437 11.5913 10.1855 11.7577 10.149C13.9946 9.65411 16.2305 9.15298 18.4654 8.64896C18.9298 8.54422 19.253 8.25689 19.4418 7.81678C19.4704 7.75 19.4642 7.66783 19.5281 7.61594C19.5281 6.48827 19.5281 5.36108 19.5281 4.23341C19.4852 4.11617 19.4527 3.99461 19.3979 3.88362ZM10.5134 11.1844C10.0124 11.1806 9.51086 11.1801 9.00981 11.1849C8.90874 11.1859 8.87966 11.1542 8.88204 11.0547C8.88824 10.8053 8.88395 10.556 8.88395 10.3066C8.88395 10.051 8.88776 9.79489 8.88204 9.53928C8.87966 9.43694 8.90064 9.39322 9.01553 9.39466C9.51658 9.4009 10.0181 9.39994 10.5192 9.39514C10.6202 9.39418 10.6479 9.42685 10.6469 9.52583C10.6426 10.0375 10.6422 10.5488 10.6474 11.0605C10.6484 11.1676 10.6074 11.1849 10.5134 11.1844ZM18.1308 7.81198C16.0012 8.29197 13.8721 8.77244 11.7439 9.2582C11.5894 9.29328 11.5399 9.27742 11.5441 9.10109C11.5556 8.63599 11.4102 8.49905 10.9473 8.49905C10.153 8.49905 9.35878 8.49905 8.56454 8.49905C8.12594 8.49905 7.97386 8.64175 7.98482 9.08043C7.98959 9.26589 7.95002 9.2952 7.76838 9.25388C5.6407 8.76668 3.51064 8.28861 1.38105 7.81005C0.996801 7.72357 0.892872 7.60393 0.892395 7.20802C0.891442 6.34365 0.891442 5.4788 0.892395 4.61442C0.892872 4.16758 1.02636 4.03545 1.47211 4.03545C4.23623 4.03545 7.00036 4.03545 9.76448 4.03545C12.5157 4.03545 15.2675 4.03545 18.0187 4.03545C18.1012 4.03545 18.1846 4.03257 18.2661 4.04218C18.4621 4.06476 18.5879 4.18824 18.617 4.38428C18.6294 4.46596 18.637 4.54956 18.637 4.6322C18.6385 5.48408 18.6385 6.33548 18.6375 7.18736C18.637 7.60922 18.5427 7.71924 18.1308 7.81198Z" fill="white"/>
</svg>
