<svg width="60" height="10" viewBox="0 0 60 10" fill="none" xmlns="http://www.w3.org/2000/svg">
<path d="M42.9297 4.30664C41.9805 2.44336 40.082 1.17773 37.9375 1.17773C35.7754 1.17773 33.877 2.44336 32.9277 4.30664C32.8926 4.37695 32.875 4.46484 32.875 4.55273C32.875 4.6582 32.8926 4.74609 32.9277 4.81641C33.877 6.67969 35.7754 7.92773 37.9375 7.92773C40.082 7.92773 41.9805 6.67969 42.9297 4.81641C42.9648 4.74609 42.9824 4.6582 42.9824 4.57031C42.9824 4.46484 42.9648 4.37695 42.9297 4.30664ZM37.9375 7.08398C36.5312 7.08398 35.4062 5.95898 35.4062 4.55273C35.4062 3.16406 36.5312 2.02148 37.9375 2.02148C39.3262 2.02148 40.4688 3.16406 40.4688 4.55273V4.57031C40.4688 5.95898 39.3262 7.10156 37.9375 7.10156V7.08398ZM37.9375 2.86523C37.7793 2.88281 37.6211 2.90039 37.4805 2.93555C37.5859 3.07617 37.6387 3.25195 37.6387 3.44531C37.6387 3.90234 37.2695 4.27148 36.8125 4.27148C36.6191 4.27148 36.4434 4.21875 36.3027 4.11328C36.2676 4.25391 36.25 4.41211 36.25 4.55273C36.25 5.48438 37.0059 6.24023 37.9375 6.24023C38.8691 6.24023 39.625 5.48438 39.625 4.55273C39.625 3.62109 38.8691 2.88281 37.9375 2.88281V2.86523Z" fill="#008B56"/>
<path d="M22.9414 1.5293C22.8711 1.45898 22.7656 1.45898 22.6953 1.5293L18.8633 5.36133L18.6875 6.99609C18.6523 7.20703 18.8457 7.40039 19.0566 7.36523L20.6914 7.18945L24.5234 3.35742C24.5938 3.28711 24.5938 3.18164 24.5234 3.11133L22.9414 1.5293ZM25.7891 1.125L24.9277 0.263672C24.6641 0 24.2246 0 23.9609 0.263672L23.3457 0.878906C23.2754 0.949219 23.2754 1.05469 23.3457 1.125L24.9277 2.70703C24.998 2.77734 25.1035 2.77734 25.1738 2.70703L25.7891 2.0918C26.0527 1.82812 26.0527 1.38867 25.7891 1.125ZM22.625 6.15234V7.92773H17V2.30273H21.0254C21.0957 2.30273 21.1484 2.28516 21.1836 2.25L21.8867 1.54688C22.0098 1.40625 21.9219 1.17773 21.7285 1.17773H16.7188C16.2441 1.17773 15.875 1.56445 15.875 2.02148V8.20898C15.875 8.68359 16.2441 9.05273 16.7188 9.05273H22.9062C23.3633 9.05273 23.75 8.68359 23.75 8.20898V5.44922C23.75 5.25586 23.5215 5.16797 23.3809 5.29102L22.6777 5.99414C22.6426 6.0293 22.625 6.08203 22.625 6.15234Z" fill="#008B56"/>
<path d="M52.6875 8.20898C52.6875 8.68359 53.0566 9.05273 53.5312 9.05273H58.5938C59.0508 9.05273 59.4375 8.68359 59.4375 8.20898V2.30273H52.6875V8.20898ZM57.4688 3.70898C57.4688 3.56836 57.5918 3.42773 57.75 3.42773C57.8906 3.42773 58.0312 3.56836 58.0312 3.70898V7.64648C58.0312 7.80469 57.8906 7.92773 57.75 7.92773C57.5918 7.92773 57.4688 7.80469 57.4688 7.64648V3.70898ZM55.7812 3.70898C55.7812 3.56836 55.9043 3.42773 56.0625 3.42773C56.2031 3.42773 56.3438 3.56836 56.3438 3.70898V7.64648C56.3438 7.80469 56.2031 7.92773 56.0625 7.92773C55.9043 7.92773 55.7812 7.80469 55.7812 7.64648V3.70898ZM54.0938 3.70898C54.0938 3.56836 54.2168 3.42773 54.375 3.42773C54.5156 3.42773 54.6562 3.56836 54.6562 3.70898V7.64648C54.6562 7.80469 54.5156 7.92773 54.375 7.92773C54.2168 7.92773 54.0938 7.80469 54.0938 7.64648V3.70898ZM59.7188 0.615234H57.6094L57.4336 0.298828C57.3633 0.158203 57.2227 0.0527344 57.0645 0.0527344H55.043C54.8848 0.0527344 54.7441 0.158203 54.6738 0.298828L54.5156 0.615234H52.4062C52.248 0.615234 52.125 0.755859 52.125 0.896484V1.45898C52.125 1.61719 52.248 1.74023 52.4062 1.74023H59.7188C59.8594 1.74023 60 1.61719 60 1.45898V0.896484C60 0.755859 59.8594 0.615234 59.7188 0.615234Z" fill="#FF0000"/>
<path d="M8.98545 4.92594C8.94256 4.39199 8.7828 3.88739 8.54429 3.41012C8.20621 2.73347 7.72743 2.17394 7.10971 1.73505C6.54967 1.33729 5.93019 1.08248 5.25378 0.9641C5.10706 0.938519 4.95784 0.947297 4.81112 0.927734C4.78779 0.927734 4.76422 0.927734 4.74089 0.927734C4.70779 0.946544 4.67167 0.932249 4.63731 0.936763C4.60747 0.9325 4.57612 0.946043 4.54753 0.927734C4.51241 0.927734 4.4773 0.927734 4.44219 0.927734C4.41385 0.946043 4.38225 0.9325 4.3524 0.936763C4.31804 0.932249 4.28218 0.946544 4.24907 0.927734C4.21396 0.927734 4.17885 0.927734 4.14374 0.927734C4.04066 0.946043 3.93532 0.938268 3.83174 0.951811C3.35672 1.01301 2.90804 1.16248 2.48168 1.37415C1.91161 1.65705 1.42179 2.04604 1.01574 2.53735C0.511383 3.14754 0.188602 3.84224 0.0438902 4.62072C0.0160513 4.77019 0.0208165 4.92192 0 5.0714C0 5.10651 0 5.14162 0 5.17673C0.0188101 5.20984 0.00451442 5.24595 0.00902884 5.28031C0.00476522 5.31016 0.0183085 5.34151 0 5.3701C0 5.40521 0 5.44032 0 5.47543C0.0183085 5.50377 0.00476522 5.53537 0.00902884 5.56522C0.00451442 5.59958 0.0188101 5.63544 0 5.66855C0 5.70366 0 5.73877 0 5.77388C0.0183085 5.87696 0.0107844 5.98229 0.0240769 6.08587C0.0850216 6.56113 0.234248 7.00981 0.446175 7.43641C0.737606 8.02303 1.14064 8.52412 1.65027 8.93668C2.11726 9.31488 2.63943 9.59126 3.21677 9.75979C3.52325 9.84933 3.834 9.91228 4.15602 9.9203C4.43667 9.92733 4.71757 9.9356 4.99671 9.91278C5.53066 9.86914 6.03452 9.70788 6.51205 9.47012C7.09842 9.17794 7.59902 8.77441 8.01134 8.26479C8.3913 7.7953 8.66743 7.26988 8.83547 6.68929C8.9235 6.38532 8.98495 6.07759 8.99272 5.75833C8.99949 5.4802 9.00777 5.20206 8.98545 4.92594ZM2.22812 3.15581C3.36274 2.02296 5.06117 1.94497 6.24595 2.74074C4.76873 4.21794 3.29051 5.69613 1.81354 7.17308C1.00546 5.96348 1.11732 4.26484 2.22812 3.15581ZM6.76059 7.69398C5.63675 8.79824 3.95915 8.91235 2.75154 8.11106C4.227 6.63562 5.70422 5.15842 7.18294 3.67973C8.00657 4.9154 7.82825 6.64515 6.76059 7.69398Z" fill="#2E2E2E"/>
</svg>
