<svg width="13" height="13" viewBox="0 0 13 13" fill="none" xmlns="http://www.w3.org/2000/svg">
<path d="M12.7476 11.1825L10.2233 8.65825C10.0971 8.55728 9.94563 8.48155 9.79417 8.48155H9.39029C10.0718 7.59806 10.501 6.48738 10.501 5.25049C10.501 2.37282 8.12816 0 5.25049 0C2.34757 0 0 2.37282 0 5.25049C0 8.1534 2.34757 10.501 5.25049 10.501C6.46214 10.501 7.57282 10.0971 8.48155 9.39029V9.81942C8.48155 9.97087 8.53204 10.1223 8.65825 10.2485L11.1573 12.7476C11.4097 13 11.7883 13 12.0155 12.7476L12.7223 12.0408C12.9748 11.8136 12.9748 11.435 12.7476 11.1825ZM5.25049 8.48155C3.45825 8.48155 2.01942 7.04272 2.01942 5.25049C2.01942 3.4835 3.45825 2.01942 5.25049 2.01942C7.01748 2.01942 8.48155 3.4835 8.48155 5.25049C8.48155 7.04272 7.01748 8.48155 5.25049 8.48155Z" fill="#2E2E2E"/>
</svg>
