<svg width="61" height="61" viewBox="0 0 61 61" fill="none" xmlns="http://www.w3.org/2000/svg">
<g clip-path="url(#clip0_803_975)">
<path d="M56.3717 56.3369H48.9525L48.9699 60.9652L61 60.9479L60.9653 28.9658H56.3543L56.3717 56.3369Z" fill="white"/>
<path d="M0.0346703 47.791L0.0520048 60.9999L36.7144 60.9652V56.3369L4.66297 56.3716V47.791H0.0346703Z" fill="white"/>
<path d="M0 0.0519893L0.0346689 39.6439H4.64564L4.6283 4.66296H13.2089V0.0346549L0 0.0519893Z" fill="white"/>
<path d="M60.948 0L29.5553 0.0173345V4.64564L56.337 4.6283V13.2089H60.9653L60.948 0Z" fill="white"/>
<path d="M28.4285 20.1946H27.4058V20.212H27.3885C27.3885 20.9053 27.4058 21.5814 27.4058 22.2748H28.4285V20.1946Z" fill="white"/>
<path d="M28.4458 40.8921H30.474V39.8867H29.4512V38.864H28.4458V40.8921Z" fill="white"/>
<path d="M37.7718 30.5779V31.618H38.7772V31.6006H38.7945V29.5378H38.7772V29.5205H36.7317V29.5378H36.7144V30.5779H37.7718Z" fill="white"/>
<path d="M27.3885 29.5725H26.4004V30.5606H27.3885V29.5725Z" fill="white"/>
<path d="M23.2282 36.8357H18.0972V41.932H23.2282V36.8357ZM22.1708 40.9093H19.1372V37.8757H22.1708V40.9093Z" fill="white"/>
<path d="M27.3538 39.748V38.8466C27.0244 38.8466 26.6951 38.8466 26.3657 38.8466V38.864H26.3484V39.8867H26.3657V39.904H27.3538V39.748Z" fill="white"/>
<path d="M28.4285 31.5834H29.4166V30.578H28.8965H28.5152H27.4058V31.618H25.3603V32.6234H26.1404H26.7124H28.4285V31.5834Z" fill="white"/>
<path d="M32.5888 23.3148V22.2574H31.5487V19.1892H31.5314V19.1718H30.4913V20.2466H29.4686V22.2747H29.4859V22.292H30.5433V25.3602H31.5661V23.3321L32.5888 23.3148Z" fill="white"/>
<path d="M28.4285 34.7556H26.4004V35.7437H28.4285V34.7556Z" fill="white"/>
<path d="M24.2856 30.0405C24.2856 30.2139 24.2856 30.3872 24.2856 30.5606H25.2736V29.5378H24.2856C24.2856 29.7112 24.2856 29.8845 24.2856 30.0405Z" fill="white"/>
<path d="M24.2682 28.5326H23.2802V29.5207H23.8002H24.2682V28.5326Z" fill="white"/>
<path d="M24.2682 32.6756H23.2802V33.6463H24.2682V32.6756Z" fill="white"/>
<path d="M24.2682 30.578H23.2802V31.566H24.2682V30.578Z" fill="white"/>
<path d="M21.1307 27.5098H20.16V28.4805H21.1307V27.5098Z" fill="white"/>
<path d="M39.8346 32.6409V31.6008H38.7945V31.6181H38.7772V32.6409H39.8173H39.8346Z" fill="white"/>
<path d="M40.8747 32.6408H41.8974H41.9147V30.5606H40.8747V30.578H40.8573V32.6408H40.8747Z" fill="white"/>
<path d="M40.8573 32.6407H39.8346H39.8173V33.6807H40.8573V33.6634H40.8747V32.6407H40.8573Z" fill="white"/>
<path d="M31.5141 33.7155H30.526V34.6689H31.5141V33.7155Z" fill="white"/>
<path d="M29.4166 32.6407H28.4285V33.6287H29.4166V32.6407Z" fill="white"/>
<path d="M35.6397 30.5953H31.5661V31.618H32.5888V32.6061C32.9355 32.6234 33.2648 32.6408 33.6289 32.6581V33.6462H34.6343V31.5834H35.6397V30.5953Z" fill="white"/>
<path d="M31.5487 19.1547V19.172H32.5368V18.1319H31.5487V18.1493H31.5314V19.1547H31.5487Z" fill="white"/>
<path d="M40.8573 35.7611H38.8292V36.7492H40.8573V35.7611Z" fill="white"/>
<path d="M36.6971 32.6756H35.7263V33.6463H36.6971V32.6756Z" fill="white"/>
<path d="M36.7491 23.2802H41.8627V18.1666H36.7491V23.2802ZM37.7891 19.2066H40.8227V22.2575H37.7891V19.2066Z" fill="white"/>
<path d="M15.1157 44.9136H44.8443V15.185H15.1157V44.9136ZM35.7263 17.1265H42.9028V24.3029H35.7263V17.1265ZM42.9028 40.892H41.9321V39.9213H42.9028V40.892ZM41.8974 26.4351L39.8693 26.4178V25.4297H41.8974V26.4351H42.2614H42.6254H42.8855V28.4632H40.8747V27.4925H41.8974V26.4351ZM17.0744 17.1265H24.2509V24.3029H17.0744V17.1265ZM24.2682 42.9722H17.0571V35.7957H24.2682V42.9722ZM40.8227 40.9094C40.5106 40.9267 40.1986 40.944 39.8519 40.944V41.9148H38.8119V40.944H37.7891V39.904H36.7491V38.8812H33.6289V36.8184H32.6061V38.8466H31.5661V40.9094H32.5541V41.9668H32.5715V41.9841H33.5942V39.9386H34.6169V41.9668H37.7198V42.9722H32.5888V41.9841H32.5715V41.9668H32.0861H31.5487V42.9895H27.4231V40.944H26.3657V40.9614H26.3484V42.9895H25.3603V40.9614H26.3484V40.944H26.3657V39.9213H26.3484V39.904H25.3603V38.8812H26.3484V38.8639H26.3657V38.3785V36.8184H25.3256V34.7383H17.0571V33.7329H18.0798V32.6755H18.0625V32.6582H17.0744V31.6701H18.0625V32.6582H18.0798V32.6755H18.6172H18.8079H19.0852V33.6809H22.1534V30.6127H21.6681H21.1827V31.6008H19.1199V26.4698H19.1026V26.4524H18.0972V27.4578H17.0571V25.4644H19.1026C19.1026 25.7937 19.1026 26.1231 19.1026 26.4524H19.1199V26.4698H19.6573H19.848H20.1253V25.4644H21.148V26.4698H23.2455V26.4524H23.2628V25.4297H24.8229H25.3256V25.4124H25.343V24.407V21.3041H26.3831V20.2467H26.3484V20.2294H25.3603V18.1665H27.3884V18.1492H27.4058V17.9239V17.1438H29.4513V18.1492H31.5314V18.1319H31.5487V17.9065V17.1265H33.5942V18.0972H34.6169V19.1373C34.3049 19.1546 33.9929 19.1719 33.6289 19.1893V20.1773H32.6061V21.2174H33.5769V22.2575H34.6343V26.3831H35.657V25.4124H38.7599V26.4004H36.7491C36.7317 26.7644 36.7144 27.0938 36.6971 27.4405H35.709V28.4806H34.8943H34.6516V28.4979H34.6343V29.538H36.7144V29.5206H36.7317V28.4979H37.7371V27.4925H38.7772V28.4979V29.5033H38.7945V29.5206H39.0199H39.7999V30.5607H40.84V30.5434H40.8573V30.3353V29.5726H42.8855V32.6408H41.8974V32.6582H41.8801V33.6809H40.8573V33.6982H40.84C40.84 34.3743 40.8573 35.0676 40.8573 35.761H41.8627V34.7556H42.8681V37.8238H38.8292V39.8693H39.8173V38.9159H40.8227V40.9094ZM42.9028 42.9722H40.8747V42.0014H42.9028V42.9722Z" fill="white"/>
<path d="M34.6863 37.7718H37.7025V34.721H34.6863V37.7718ZM35.709 35.7957H36.6971V36.7491H35.709V35.7957Z" fill="white"/>
<path d="M29.4686 37.8066V38.8466H30.4913V37.8239V37.8066H30.5086H31.4967V36.7838H30.5086H30.4913V36.7665V35.7438H29.4339H28.4458C28.4458 36.4198 28.4458 37.1132 28.4458 37.8066H29.4686Z" fill="white"/>
<path d="M27.4058 19.1547V19.172H28.3939V18.1319H27.4058V18.1493H27.3885V19.1547H27.4058Z" fill="white"/>
<path d="M18.1145 23.2802H23.2282V18.1666H18.1145V23.2802ZM19.1546 19.2066H22.1881V22.2402H19.1546V19.2066Z" fill="white"/>
<path d="M21.1654 29.5725H20.1773V30.5606H21.1654V29.5725Z" fill="white"/>
<path d="M34.6343 28.4805H34.6516V27.4404H33.5942V23.3148H32.5888V23.3321H32.5715V26.4523H30.526V27.4751H31.5661V29.5032H33.6289V28.4978H34.6343V28.4805Z" fill="white"/>
<path d="M28.4285 38.8465V37.8238H27.3885V38.0838C27.3885 38.3438 27.3885 38.5865 27.3885 38.8119C27.7351 38.8465 28.0818 38.8465 28.4285 38.8465Z" fill="white"/>
<path d="M27.3884 20.1946H27.4058V19.1718H27.3884V19.1545H26.3484V20.1946H26.3657V20.2119H27.3884V20.1946Z" fill="white"/>
<path d="M26.3484 27.475L26.3657 26.4696H27.3538V27.4577L26.3484 27.475V27.9777V28.5324H28.4459V29.5031H29.4686V22.292H29.4513V22.2747C29.1046 22.2747 28.7752 22.292 28.4285 22.292V25.3602H27.3885V22.292H26.3484V25.3775H25.343V25.3949H25.3083V26.4176H23.2455V26.4349H23.2282V27.475H26.3484Z" fill="white"/>
<path d="M32.5885 41.9495L32.5715 41.9665L32.5885 41.9495Z" fill="white"/>
<path d="M19.1026 26.4347L19.1196 26.4177L19.1026 26.4347Z" fill="white"/>
<path d="M28.4285 35.7608L28.4455 35.7438L28.4285 35.7608Z" fill="white"/>
<path d="M18.0752 32.636L18.062 32.6466L18.0726 32.6599L18.0859 32.6492L18.0752 32.636Z" fill="white"/>
<path d="M27.3538 38.8293L27.3708 38.8463L27.3538 38.8293Z" fill="white"/>
<path d="M32.5746 41.9443L32.5614 41.9549L32.572 41.9682L32.5853 41.9575L32.5746 41.9443Z" fill="white"/>
<path d="M21.1654 30.5777L21.1824 30.5606L21.1654 30.5777Z" fill="white"/>
<path d="M19.1196 26.4177L19.1026 26.4347H19.1196V26.4177Z" fill="white"/>
<path d="M26.3633 40.9236L26.3513 40.9356L26.3633 40.9476L26.3754 40.9356L26.3633 40.9236Z" fill="white"/>
<path d="M24.3026 30.5777L24.2856 30.5606L24.3026 30.5777Z" fill="white"/>
<path d="M24.2853 29.5205L24.2682 29.5375L24.2853 29.5205Z" fill="white"/>
<path d="M40.8573 35.7438H40.8743V35.7608V35.7438H40.8573Z" fill="white"/>
<path d="M27.3885 30.5777L27.4055 30.5606L27.3885 30.5777Z" fill="white"/>
<path d="M21.1654 30.5777H21.1824V30.5606L21.1654 30.5777Z" fill="white"/>
<path d="M41.9063 26.4137L41.8931 26.4243L41.9037 26.4376L41.917 26.4269L41.9063 26.4137Z" fill="white"/>
<path d="M19.1026 26.4177V26.4347L19.1196 26.4177H19.1026Z" fill="white"/>
<path d="M26.3654 40.9267H26.3484V40.9437H26.3654V40.9267Z" fill="white"/>
<path d="M41.9144 26.4177H41.8974V26.4347V26.4177H41.9144Z" fill="white"/>
<path d="M18.0795 32.6407H18.0625V32.6577H18.0795V32.6407Z" fill="white"/>
<path d="M23.2455 26.4177V26.4347H23.2625L23.2455 26.4177Z" fill="white"/>
<path d="M26.3579 27.4492L26.3459 27.4613L26.358 27.4733L26.37 27.4612L26.3579 27.4492Z" fill="white"/>
<path d="M25.3253 25.3948V25.3778H25.3083L25.3253 25.3948Z" fill="white"/>
<path d="M25.3253 25.3948L25.3083 25.3778V25.3948H25.3253Z" fill="white"/>
<path d="M23.2625 26.4177H23.2455L23.2625 26.4347V26.4177Z" fill="white"/>
<path d="M34.6343 28.4976H34.6513L34.6343 28.4806V28.4976Z" fill="white"/>
<path d="M34.6513 28.4976V28.4806H34.6343L34.6513 28.4976Z" fill="white"/>
<path d="M29.4513 22.2917H29.4683V22.2747L29.4513 22.2917Z" fill="white"/>
<path d="M29.4513 22.2747V22.2917L29.4683 22.2747H29.4513Z" fill="white"/>
<path d="M27.4055 30.5606L27.3885 30.5777H27.4055V30.5606Z" fill="white"/>
<path d="M36.7144 29.5205V29.5375H36.7314L36.7144 29.5205Z" fill="white"/>
<path d="M38.7942 29.5375V29.5205L38.7772 29.5375H38.7942Z" fill="white"/>
<path d="M36.7314 29.5205H36.7144L36.7314 29.5375V29.5205Z" fill="white"/>
<path d="M38.7942 29.5205H38.7772V29.5375L38.7942 29.5205Z" fill="white"/>
<path d="M28.4285 35.7608H28.4455V35.7438L28.4285 35.7608Z" fill="white"/>
<path d="M40.8573 35.7438V35.7608H40.8743V35.7438H40.8573Z" fill="white"/>
<path d="M28.4285 35.7438V35.7608L28.4455 35.7438H28.4285Z" fill="white"/>
<path d="M26.3654 38.8466H26.3484L26.3654 38.8636V38.8466Z" fill="white"/>
<path d="M26.3484 39.9035H26.3654V39.8865L26.3484 39.9035Z" fill="white"/>
<path d="M27.3708 38.8463C27.3538 38.8463 27.3538 38.8293 27.3538 38.8293V38.8463C27.3708 38.8463 27.3708 38.8463 27.3708 38.8463Z" fill="white"/>
<path d="M26.3654 38.8636L26.3484 38.8466V38.8636H26.3654Z" fill="white"/>
<path d="M26.3484 39.8865V39.9035L26.3654 39.8865H26.3484Z" fill="white"/>
<path d="M27.3708 38.8463V38.8293H27.3538L27.3708 38.8463Z" fill="white"/>
<path d="M24.2682 29.5205V29.5375L24.2853 29.5205H24.2682Z" fill="white"/>
<path d="M21.1654 30.5606V30.5777L21.1824 30.5606H21.1654Z" fill="white"/>
<path d="M24.2682 29.5375H24.2853V29.5205L24.2682 29.5375Z" fill="white"/>
<path d="M24.2856 30.5606L24.3026 30.5777V30.5606H24.2856Z" fill="white"/>
<path d="M27.3885 30.5606V30.5777L27.4055 30.5606H27.3885Z" fill="white"/>
<path d="M24.2856 30.5777H24.3026L24.2856 30.5606V30.5777Z" fill="white"/>
<path d="M40.8573 33.6805H40.8743L40.8573 33.6635V33.6805Z" fill="white"/>
<path d="M40.8743 33.6805V33.6635H40.8573L40.8743 33.6805Z" fill="white"/>
<path d="M38.7772 31.6008V31.6178H38.7942L38.7772 31.6008Z" fill="white"/>
<path d="M38.7942 31.6008H38.7772L38.7942 31.6178V31.6008Z" fill="white"/>
<path d="M31.5484 18.1319H31.5314L31.5484 18.1489V18.1319Z" fill="white"/>
<path d="M31.5314 18.1319V18.1489H31.5484L31.5314 18.1319Z" fill="white"/>
<path d="M31.5484 19.1715V19.1545L31.5314 19.1715H31.5484Z" fill="white"/>
<path d="M31.5484 19.1545H31.5314V19.1715L31.5484 19.1545Z" fill="white"/>
<path d="M27.4055 18.1319H27.3885L27.4055 18.1489V18.1319Z" fill="white"/>
<path d="M27.3885 18.1319V18.1489H27.4055L27.3885 18.1319Z" fill="white"/>
<path d="M26.3484 20.2116H26.3654V20.1946L26.3484 20.2116Z" fill="white"/>
<path d="M26.3484 20.1946V20.2116L26.3654 20.1946H26.3484Z" fill="white"/>
<path d="M27.4055 20.1946H27.3885L27.4055 20.2116V20.1946Z" fill="white"/>
<path d="M27.3885 20.1946V20.2116H27.4055L27.3885 20.1946Z" fill="white"/>
<path d="M27.3885 19.1715H27.4055V19.1545L27.3885 19.1715Z" fill="white"/>
<path d="M27.3885 19.1545V19.1715L27.4055 19.1545H27.3885Z" fill="white"/>
<path d="M40.8743 30.5606H40.8573L40.8743 30.5777V30.5606Z" fill="white"/>
<path d="M41.9144 32.6404V32.6234H41.8974L41.9144 32.6404Z" fill="white"/>
<path d="M40.8573 30.5606V30.5777H40.8743L40.8573 30.5606Z" fill="white"/>
<path d="M27.3885 22.2747V22.2917H27.4055L27.3885 22.2747Z" fill="white"/>
<path d="M28.4455 22.2747H28.4285V22.2917L28.4455 22.2747Z" fill="white"/>
<path d="M27.4055 22.2747H27.3885L27.4055 22.2917V22.2747Z" fill="white"/>
<path d="M26.3654 27.4578H26.3484V27.4748H26.3654V27.4578Z" fill="white"/>
<path d="M28.4455 37.8065H28.4285L28.4455 37.8235V37.8065Z" fill="white"/>
<path d="M29.4513 38.8636H29.4683L29.4513 38.8466V38.8636Z" fill="white"/>
<path d="M28.4285 38.8636H28.4455V38.8466L28.4285 38.8636Z" fill="white"/>
<path d="M29.4683 38.8636V38.8466H29.4513L29.4683 38.8636Z" fill="white"/>
<path d="M28.4285 37.8065V37.8235H28.4455L28.4285 37.8065Z" fill="white"/>
<path d="M30.5083 36.7837H30.4913V36.8007L30.5083 36.7837Z" fill="white"/>
<path d="M30.4913 37.8235H30.5083L30.4913 37.8065V37.8235Z" fill="white"/>
<path d="M30.5083 36.8007V36.7837L30.4913 36.8007H30.5083Z" fill="white"/>
<path d="M30.5083 37.8235V37.8065H30.4913L30.5083 37.8235Z" fill="white"/>
<path d="M29.4513 37.8065V37.8235L29.4683 37.8065H29.4513Z" fill="white"/>
<path d="M29.4513 37.8235H29.4683V37.8065L29.4513 37.8235Z" fill="white"/>
</g>
<defs>
<clipPath id="clip0_803_975">
<rect width="60.1635" height="60.1635" fill="white" transform="scale(1.0139)"/>
</clipPath>
</defs>
</svg>
