<svg width="48" height="42" viewBox="0 0 48 42" fill="none" xmlns="http://www.w3.org/2000/svg">
<path d="M46.8739 23.9701C46.779 23.3666 46.2435 22.9923 45.6505 23.1045C44.9931 23.2285 44.7224 23.6017 44.7213 24.4047C44.7201 28.9859 44.7213 33.567 44.7201 38.1481C44.7201 39.2075 44.3662 39.5783 43.3327 39.5783C30.4462 39.5795 17.5596 39.5795 4.67312 39.5783C3.63606 39.5783 3.281 39.2098 3.281 38.1528C3.281 34.3748 3.281 30.5968 3.281 26.8187C3.281 25.9684 3.28803 25.1181 3.27865 24.2689C3.27162 23.6619 3.01617 23.2922 2.53807 23.1517C1.66155 22.8954 1.0768 23.4174 1.07563 24.4803C1.07094 29.0615 1.07094 33.6426 1.0768 38.2237C1.07797 38.8047 1.13657 39.3834 1.40257 39.9172C2.06348 41.2423 3.15796 41.7868 4.59695 41.7856C11.0478 41.7762 17.4987 41.7821 23.9508 41.7821C28.0275 41.7821 32.1043 41.7832 36.181 41.7821C38.711 41.7809 41.2421 41.775 43.7721 41.775C44.2338 41.775 44.6709 41.664 45.0775 41.4596C46.4392 40.777 46.929 39.5996 46.9278 38.1351C46.922 33.6166 46.9266 29.0992 46.9231 24.5807C46.9255 24.3752 46.9055 24.1709 46.8739 23.9701Z" fill="#64009C"/>
<path d="M16.4923 5.48793C17.0173 5.44541 17.3887 5.08993 17.4344 4.55494C17.4626 4.22662 17.4532 3.89476 17.4579 3.56526C17.4731 2.58384 17.8422 2.21537 18.8266 2.20474C18.8582 2.20474 18.8887 2.20474 18.9203 2.20474C22.308 2.20474 25.6958 2.20356 29.0847 2.2071C29.2851 2.2071 29.4878 2.23781 29.687 2.26615C30.1393 2.33229 30.3912 2.59919 30.4885 3.05152C30.5998 3.56644 30.4979 4.08844 30.5694 4.60218C30.6432 5.13245 31.0486 5.48202 31.6064 5.49265C32.1677 5.50328 32.64 5.18087 32.6939 4.66477C32.7654 3.97743 32.8064 3.27473 32.6552 2.59683C32.3001 1.00602 31.1119 0.0340515 29.4807 0.0127934C27.6539 -0.0120076 25.827 0.00688842 24.0013 0.00688842C24.0013 0.00925043 24.0013 0.0116124 24.0013 0.0139744C22.1123 0.0139744 20.2234 -0.00374062 18.3344 0.0222415C17.4016 0.0352325 16.6329 0.453308 16.0247 1.17372C15.1259 2.23899 15.2021 3.50384 15.338 4.75807C15.3908 5.26236 15.9204 5.53399 16.4923 5.48793Z" fill="#64009C"/>
<path d="M47.6801 9.54569C47.0051 8.171 45.8345 7.67616 44.3826 7.67616C30.8059 7.67852 17.2291 7.67734 3.65126 7.67734C3.57275 7.67734 3.49541 7.67616 3.4169 7.67734C1.34043 7.71395 0.00572404 9.07211 0.0033804 11.1601C-0.00013506 13.4277 -0.00247756 15.6952 0.00455337 17.9627C0.00924065 19.589 1.04161 20.8975 2.61185 21.2577C4.30982 21.6474 6.01247 22.0183 7.71278 22.3997C11.554 23.2607 15.3941 24.124 19.2353 24.9802C19.5142 25.0428 19.6372 25.1373 19.6267 25.4656C19.5962 26.4246 19.6091 27.3859 19.6173 28.3473C19.6255 29.3098 19.9993 29.6842 20.9532 29.6854C22.9839 29.6889 25.0159 29.6889 27.0467 29.6854C28.0017 29.6842 28.3767 29.311 28.3849 28.3496C28.3931 27.4367 28.4153 26.5215 28.3743 25.6109C28.3544 25.1787 28.4915 25.0357 28.9005 24.946C34.3987 23.7296 39.8945 22.4978 45.388 21.2589C46.5293 21.0014 47.3238 20.2952 47.7879 19.2134C47.8582 19.0492 47.843 18.8473 48 18.7197C48 15.9479 48 13.1773 48 10.4055C47.8945 10.1173 47.8148 9.8185 47.6801 9.54569ZM25.842 27.4911C24.6104 27.4816 23.3777 27.4804 22.1461 27.4922C21.8977 27.4946 21.8262 27.4167 21.8321 27.1722C21.8473 26.5592 21.8367 25.9463 21.8367 25.3334C21.8367 24.7051 21.8461 24.0756 21.8321 23.4473C21.8262 23.1957 21.8778 23.0883 22.1602 23.0918C23.3917 23.1072 24.6245 23.1048 25.8561 23.093C26.1045 23.0906 26.1725 23.1709 26.1701 23.4142C26.1596 24.672 26.1584 25.9286 26.1713 27.1864C26.1737 27.4497 26.0729 27.4922 25.842 27.4911ZM44.5654 19.2016C39.3308 20.3814 34.0975 21.5624 28.8665 22.7564C28.4868 22.8426 28.365 22.8037 28.3755 22.3702C28.4036 21.227 28.0462 20.8904 26.9084 20.8904C24.9561 20.8904 23.0039 20.8904 21.0516 20.8904C19.9736 20.8904 19.5997 21.2412 19.6267 22.3194C19.6384 22.7753 19.5411 22.8473 19.0947 22.7458C13.8648 21.5482 8.62915 20.3731 3.39462 19.1969C2.45014 18.9843 2.19468 18.6902 2.19351 17.7171C2.19116 15.5924 2.19116 13.4666 2.19351 11.342C2.19468 10.2437 2.52279 9.91889 3.61844 9.91889C10.4127 9.91889 17.2069 9.91889 24.0011 9.91889C30.7637 9.91889 37.5274 9.91889 44.29 9.91889C44.4927 9.91889 44.6978 9.9118 44.8982 9.93542C45.3798 9.99093 45.6892 10.2944 45.7606 10.7763C45.7911 10.9771 45.8098 11.1826 45.8098 11.3857C45.8134 13.4796 45.8134 15.5724 45.811 17.6663C45.8098 18.7032 45.5778 18.9737 44.5654 19.2016Z" fill="#64009C"/>
</svg>
