<svg width="11" height="7" viewBox="0 0 11 7" fill="none" xmlns="http://www.w3.org/2000/svg">
<path d="M10.4271 3.24479C9.44271 1.3125 7.47396 0 5.25 0C3.00781 0 1.03906 1.3125 0.0546875 3.24479C0.0182292 3.31771 0 3.40885 0 3.5C0 3.60938 0.0182292 3.70052 0.0546875 3.77344C1.03906 5.70573 3.00781 7 5.25 7C7.47396 7 9.44271 5.70573 10.4271 3.77344C10.4635 3.70052 10.4818 3.60938 10.4818 3.51823C10.4818 3.40885 10.4635 3.31771 10.4271 3.24479ZM5.25 6.125C3.79167 6.125 2.625 4.95833 2.625 3.5C2.625 2.0599 3.79167 0.875 5.25 0.875C6.6901 0.875 7.875 2.0599 7.875 3.5V3.51823C7.875 4.95833 6.6901 6.14323 5.25 6.14323V6.125ZM5.25 1.75C5.08594 1.76823 4.92188 1.78646 4.77604 1.82292C4.88542 1.96875 4.9401 2.15104 4.9401 2.35156C4.9401 2.82552 4.55729 3.20833 4.08333 3.20833C3.88281 3.20833 3.70052 3.15365 3.55469 3.04427C3.51823 3.1901 3.5 3.35417 3.5 3.5C3.5 4.46615 4.28385 5.25 5.25 5.25C6.21615 5.25 7 4.46615 7 3.5C7 2.53385 6.21615 1.76823 5.25 1.76823V1.75Z" fill="#008B56"/>
</svg>
