<svg width="36" height="36" viewBox="0 0 36 36" fill="none" xmlns="http://www.w3.org/2000/svg">
<path d="M33.2684 33.2479H28.8899L28.9001 35.9793L35.9998 35.9691L35.9793 17.0945H33.2581L33.2684 33.2479Z" fill="#64009C"/>
<path d="M0.0204802 28.2045L0.0307104 35.9999L21.6674 35.9794V33.248L2.75192 33.2684V28.2045H0.0204802Z" fill="#64009C"/>
<path d="M0 0.0307104L0.0204602 23.3963H2.74167L2.73144 2.75192H7.79536V0.0204802L0 0.0307104Z" fill="#64009C"/>
<path d="M35.9692 0L17.4424 0.0102301V2.74167L33.248 2.73144V7.79536H35.9794L35.9692 0Z" fill="#64009C"/>
<path d="M16.7775 11.918H16.1739V11.9282H16.1636C16.1636 12.3374 16.1739 12.7364 16.1739 13.1456H16.7775V11.918Z" fill="#64009C"/>
<path d="M16.7875 24.1328H17.9845V23.5394H17.3809V22.9359H16.7875V24.1328Z" fill="#64009C"/>
<path d="M22.2914 18.046V18.6598H22.8847V18.6495H22.8949V17.4322H22.8847V17.4219H21.6776V17.4322H21.6673V18.046H22.2914Z" fill="#64009C"/>
<path d="M16.1636 17.4527H15.5805V18.0358H16.1636V17.4527Z" fill="#64009C"/>
<path d="M13.7083 21.739H10.6802V24.7467H13.7083V21.739ZM13.0843 24.1431H11.294V22.3528H13.0843V24.1431Z" fill="#64009C"/>
<path d="M16.1431 23.4576V22.9256C15.9487 22.9256 15.7543 22.9256 15.56 22.9256V22.9359H15.5497V23.5394H15.56V23.5497H16.1431V23.4576Z" fill="#64009C"/>
<path d="M16.7773 18.6392H17.3604V18.0458H17.0535H16.8284H16.1737V18.6596H14.9666V19.253H15.4269H15.7645H16.7773V18.6392Z" fill="#64009C"/>
<path d="M19.2326 13.7596V13.1355H18.6188V11.3248H18.6086V11.3146H17.9948V11.9488H17.3912V13.1458H17.4014V13.156H18.0255V14.9667H18.6291V13.7698L19.2326 13.7596Z" fill="#64009C"/>
<path d="M16.7774 20.5115H15.5805V21.0946H16.7774V20.5115Z" fill="#64009C"/>
<path d="M14.3324 17.7288C14.3324 17.8311 14.3324 17.9334 14.3324 18.0357H14.9155V17.4322H14.3324C14.3324 17.5345 14.3324 17.6368 14.3324 17.7288Z" fill="#64009C"/>
<path d="M14.3221 16.8387H13.739V17.4219H14.0459H14.3221V16.8387Z" fill="#64009C"/>
<path d="M14.3221 19.2839H13.739V19.8568H14.3221V19.2839Z" fill="#64009C"/>
<path d="M14.3221 18.0458H13.739V18.6289H14.3221V18.0458Z" fill="#64009C"/>
<path d="M12.4704 16.2353H11.8975V16.8082H12.4704V16.2353Z" fill="#64009C"/>
<path d="M23.5089 19.2633V18.6495H22.8951V18.6597H22.8849V19.2633H23.4987H23.5089Z" fill="#64009C"/>
<path d="M24.1227 19.2632H24.7263H24.7365V18.0356H24.1227V18.0458H24.1125V19.2632H24.1227Z" fill="#64009C"/>
<path d="M24.1124 19.2634H23.5088H23.4986V19.8772H24.1124V19.867H24.1226V19.2634H24.1124Z" fill="#64009C"/>
<path d="M18.5985 19.8975H18.0154V20.4602H18.5985V19.8975Z" fill="#64009C"/>
<path d="M17.3604 19.2634H16.7773V19.8465H17.3604V19.2634Z" fill="#64009C"/>
<path d="M21.0331 18.0561H18.629V18.6596H19.2326V19.2428C19.4372 19.253 19.6316 19.2632 19.8464 19.2735V19.8566H20.4398V18.6392H21.0331V18.0561Z" fill="#64009C"/>
<path d="M18.6188 11.3042V11.3145H19.2019V10.7007H18.6188V10.7109H18.6085V11.3042H18.6188Z" fill="#64009C"/>
<path d="M24.1123 21.1046H22.9154V21.6877H24.1123V21.1046Z" fill="#64009C"/>
<path d="M21.6573 19.2839H21.0844V19.8568H21.6573V19.2839Z" fill="#64009C"/>
<path d="M21.6878 13.739H24.7057V10.7212H21.6878V13.739ZM22.3016 11.335H24.0919V13.1355H22.3016V11.335Z" fill="#64009C"/>
<path d="M8.92064 26.5063H26.4653V8.9616H8.92064V26.5063ZM21.0843 10.1074H25.3195V14.3426H21.0843V10.1074ZM25.3195 24.1329H24.7466V23.56H25.3195V24.1329ZM24.7262 15.601L23.5293 15.5907V15.0076H24.7262V15.601H24.941H25.1558H25.3093V16.7979H24.1226V16.225H24.7262V15.601ZM10.0766 10.1074H14.3119V14.3426H10.0766V10.1074ZM14.3221 25.3605H10.0664V21.1252H14.3221V25.3605ZM24.0919 24.1431C23.9078 24.1533 23.7236 24.1636 23.519 24.1636V24.7365H22.9052V24.1636H22.3016V23.5498H21.6878V22.9462H19.8464V21.7288H19.2428V22.9257H18.629V24.1431H19.2121V24.7671H19.2224V24.7774H19.826V23.5702H20.4295V24.7671H22.2607V25.3605H19.2326V24.7774H19.2224V24.7671H18.9359H18.6188V25.3707H16.184V24.1636H15.56V24.1738H15.5498V25.3707H14.9666V24.1738H15.5498V24.1636H15.56V23.56H15.5498V23.5498H14.9666V22.9462H15.5498V22.936H15.56V22.6495V21.7288H14.9462V20.5012H10.0664V19.9078H10.67V19.2838H10.6598V19.2736H10.0766V18.6904H10.6598V19.2736H10.67V19.2838H10.9871H11.0997H11.2633V19.8771H13.0741V18.0664H12.7876H12.5012V18.6495H11.2838V15.6214H11.2736V15.6112H10.6802V16.2045H10.0664V15.0281H11.2736C11.2736 15.2224 11.2736 15.4168 11.2736 15.6112H11.2838V15.6214H11.6009H11.7135H11.8771V15.0281H12.4807V15.6214H13.7186V15.6112H13.7288V15.0076H14.6495H14.9462V14.9974H14.9564V14.404V12.5728H15.5702V11.9488H15.5498V11.9386H14.9666V10.7212H16.1636V10.711H16.1738V10.578V10.1176H17.381V10.711H18.6086V10.7007H18.6188V10.5677V10.1074H19.826V10.6803H20.4295V11.2941C20.2454 11.3043 20.0612 11.3145 19.8464 11.3248V11.9079H19.2428V12.5217H19.8157V13.1355H20.4398V15.5703H21.0433V14.9974H22.8745V15.5805H21.6878C21.6776 15.7953 21.6674 15.9897 21.6571 16.1943H21.074V16.8081H20.5932H20.45V16.8183H20.4398V17.4321H21.6674V17.4219H21.6776V16.8183H22.271V16.225H22.8848V16.8183V17.4117H22.895V17.4219H23.028H23.4883V18.0357H24.1021V18.0255H24.1124V17.9027V17.4526H25.3093V19.2633H24.7262V19.2736H24.716V19.8771H24.1124V19.8874H24.1021C24.1021 20.2863 24.1124 20.6956 24.1124 21.1048H24.7057V20.5114H25.2991V22.3221H22.9154V23.5293H23.4986V22.9666H24.0919V24.1431ZM25.3195 25.3605H24.1226V24.7876H25.3195V25.3605Z" fill="#64009C"/>
<path d="M20.4705 22.2915H22.2505V20.491H20.4705V22.2915ZM21.0741 21.1252H21.6572V21.6879H21.0741V21.1252Z" fill="#64009C"/>
<path d="M17.3911 22.312V22.9258H17.9947V22.3223V22.312H18.0049H18.588V21.7084H18.0049H17.9947V21.6982V21.0946H17.3707H16.7875C16.7875 21.4936 16.7875 21.9028 16.7875 22.312H17.3911Z" fill="#64009C"/>
<path d="M16.1739 11.3042V11.3145H16.757V10.7007H16.1739V10.7109H16.1636V11.3042H16.1739Z" fill="#64009C"/>
<path d="M10.6904 13.739H13.7083V10.7212H10.6904V13.739ZM11.3042 11.335H13.0945V13.1252H11.3042V11.335Z" fill="#64009C"/>
<path d="M12.4909 17.4527H11.9078V18.0358H12.4909V17.4527Z" fill="#64009C"/>
<path d="M20.4399 16.808H20.4501V16.1942H19.8261V13.7595H19.2327V13.7697H19.2225V15.6111H18.0154V16.2147H18.6292V17.4116H19.8466V16.8183H20.4399V16.808Z" fill="#64009C"/>
<path d="M16.7775 22.9258V22.3222H16.1636V22.4757C16.1636 22.6291 16.1636 22.7723 16.1636 22.9053C16.3683 22.9258 16.5729 22.9258 16.7775 22.9258Z" fill="#64009C"/>
<path d="M16.1635 11.9181H16.1738V11.3146H16.1635V11.3043H15.5497V11.9181H15.56V11.9284H16.1635V11.9181Z" fill="#64009C"/>
<path d="M15.5497 16.2148L15.5599 15.6215H16.143V16.2046L15.5497 16.2148V16.5115V16.8389H16.7875V17.4118H17.3911V13.156H17.3809V13.1458C17.1763 13.1458 16.9819 13.156 16.7773 13.156V14.9668H16.1635V13.156H15.5497V14.977H14.9563V14.9872H14.9359V15.5908H13.7185V15.601H13.7083V16.2148H15.5497Z" fill="#64009C"/>
<path d="M19.2327 24.7569L19.2224 24.7671L19.2327 24.7569Z" fill="#64009C"/>
<path d="M11.2736 15.6009L11.2838 15.5907L11.2736 15.6009Z" fill="#64009C"/>
<path d="M16.7773 21.1049L16.7875 21.0946L16.7773 21.1049Z" fill="#64009C"/>
<path d="M10.6674 19.2602L10.6595 19.2667L10.6659 19.2746L10.6738 19.2682L10.6674 19.2602Z" fill="#64009C"/>
<path d="M16.1432 22.9154L16.1534 22.9256L16.1432 22.9154Z" fill="#64009C"/>
<path d="M19.2244 24.7537L19.2165 24.7601L19.2229 24.7681L19.2308 24.7617L19.2244 24.7537Z" fill="#64009C"/>
<path d="M12.4909 18.0458L12.5012 18.0356L12.4909 18.0458Z" fill="#64009C"/>
<path d="M11.2838 15.5907L11.2736 15.6009H11.2838V15.5907Z" fill="#64009C"/>
<path d="M15.5587 24.1515L15.5515 24.1587L15.5587 24.1659L15.566 24.1587L15.5587 24.1515Z" fill="#64009C"/>
<path d="M14.3426 18.0458L14.3324 18.0356L14.3426 18.0458Z" fill="#64009C"/>
<path d="M14.3324 17.4219L14.3222 17.4322L14.3324 17.4219Z" fill="#64009C"/>
<path d="M24.1125 21.0946H24.1227V21.1049V21.0946H24.1125Z" fill="#64009C"/>
<path d="M16.1636 18.0458L16.1739 18.0356L16.1636 18.0458Z" fill="#64009C"/>
<path d="M12.4909 18.0458H12.5012V18.0356L12.4909 18.0458Z" fill="#64009C"/>
<path d="M24.7316 15.588L24.7236 15.5944L24.73 15.6024L24.738 15.596L24.7316 15.588Z" fill="#64009C"/>
<path d="M11.2736 15.5907V15.6009L11.2838 15.5907H11.2736Z" fill="#64009C"/>
<path d="M15.56 24.1534H15.5497V24.1637H15.56V24.1534Z" fill="#64009C"/>
<path d="M24.7364 15.5907H24.7261V15.6009V15.5907H24.7364Z" fill="#64009C"/>
<path d="M10.6699 19.2634H10.6597V19.2736H10.6699V19.2634Z" fill="#64009C"/>
<path d="M13.7185 15.5907V15.6009H13.7287L13.7185 15.5907Z" fill="#64009C"/>
<path d="M15.5555 16.1993L15.5482 16.2066L15.5555 16.2138L15.5627 16.2066L15.5555 16.1993Z" fill="#64009C"/>
<path d="M14.9463 14.987V14.9768H14.9361L14.9463 14.987Z" fill="#64009C"/>
<path d="M14.9463 14.987L14.9361 14.9768V14.987H14.9463Z" fill="#64009C"/>
<path d="M13.7287 15.5907H13.7185L13.7287 15.6009V15.5907Z" fill="#64009C"/>
<path d="M20.4398 16.8183H20.45L20.4398 16.808V16.8183Z" fill="#64009C"/>
<path d="M20.45 16.8183V16.808H20.4398L20.45 16.8183Z" fill="#64009C"/>
<path d="M17.381 13.156H17.3912V13.1458L17.381 13.156Z" fill="#64009C"/>
<path d="M17.381 13.1458V13.156L17.3912 13.1458H17.381Z" fill="#64009C"/>
<path d="M16.1739 18.0356L16.1636 18.0458H16.1739V18.0356Z" fill="#64009C"/>
<path d="M21.6673 17.4219V17.4322H21.6776L21.6673 17.4219Z" fill="#64009C"/>
<path d="M22.8951 17.4322V17.4219L22.8849 17.4322H22.8951Z" fill="#64009C"/>
<path d="M21.6776 17.4219H21.6673L21.6776 17.4322V17.4219Z" fill="#64009C"/>
<path d="M22.8951 17.4219H22.8849V17.4322L22.8951 17.4219Z" fill="#64009C"/>
<path d="M16.7773 21.1049H16.7875V21.0946L16.7773 21.1049Z" fill="#64009C"/>
<path d="M24.1125 21.0946V21.1049H24.1227V21.0946H24.1125Z" fill="#64009C"/>
<path d="M16.7773 21.0946V21.1049L16.7875 21.0946H16.7773Z" fill="#64009C"/>
<path d="M15.56 22.9256H15.5497L15.56 22.9359V22.9256Z" fill="#64009C"/>
<path d="M15.5497 23.5498H15.56V23.5395L15.5497 23.5498Z" fill="#64009C"/>
<path d="M16.1534 22.9256C16.1432 22.9256 16.1432 22.9154 16.1432 22.9154V22.9256C16.1534 22.9256 16.1534 22.9256 16.1534 22.9256Z" fill="#64009C"/>
<path d="M15.56 22.9359L15.5497 22.9256V22.9359H15.56Z" fill="#64009C"/>
<path d="M15.5497 23.5395V23.5498L15.56 23.5395H15.5497Z" fill="#64009C"/>
<path d="M16.1534 22.9256V22.9154H16.1432L16.1534 22.9256Z" fill="#64009C"/>
<path d="M14.3222 17.4219V17.4322L14.3324 17.4219H14.3222Z" fill="#64009C"/>
<path d="M12.4909 18.0356V18.0458L12.5012 18.0356H12.4909Z" fill="#64009C"/>
<path d="M14.3222 17.4322H14.3324V17.4219L14.3222 17.4322Z" fill="#64009C"/>
<path d="M14.3324 18.0356L14.3426 18.0458V18.0356H14.3324Z" fill="#64009C"/>
<path d="M16.1636 18.0356V18.0458L16.1739 18.0356H16.1636Z" fill="#64009C"/>
<path d="M14.3324 18.0458H14.3426L14.3324 18.0356V18.0458Z" fill="#64009C"/>
<path d="M24.1125 19.8771H24.1227L24.1125 19.8668V19.8771Z" fill="#64009C"/>
<path d="M24.1227 19.8771V19.8668H24.1125L24.1227 19.8771Z" fill="#64009C"/>
<path d="M22.8849 18.6495V18.6597H22.8951L22.8849 18.6495Z" fill="#64009C"/>
<path d="M22.8951 18.6495H22.8849L22.8951 18.6597V18.6495Z" fill="#64009C"/>
<path d="M18.6188 10.7007H18.6085L18.6188 10.7109V10.7007Z" fill="#64009C"/>
<path d="M18.6085 10.7007V10.7109H18.6188L18.6085 10.7007Z" fill="#64009C"/>
<path d="M18.6188 11.3146V11.3043L18.6085 11.3146H18.6188Z" fill="#64009C"/>
<path d="M18.6188 11.3043H18.6085V11.3146L18.6188 11.3043Z" fill="#64009C"/>
<path d="M16.1739 10.7007H16.1636L16.1739 10.7109V10.7007Z" fill="#64009C"/>
<path d="M16.1636 10.7007V10.7109H16.1739L16.1636 10.7007Z" fill="#64009C"/>
<path d="M15.5497 11.9282H15.56V11.918L15.5497 11.9282Z" fill="#64009C"/>
<path d="M15.5497 11.918V11.9282L15.56 11.918H15.5497Z" fill="#64009C"/>
<path d="M16.1739 11.918H16.1636L16.1739 11.9282V11.918Z" fill="#64009C"/>
<path d="M16.1636 11.918V11.9282H16.1739L16.1636 11.918Z" fill="#64009C"/>
<path d="M16.1636 11.3146H16.1739V11.3043L16.1636 11.3146Z" fill="#64009C"/>
<path d="M16.1636 11.3043V11.3146L16.1739 11.3043H16.1636Z" fill="#64009C"/>
<path d="M24.1227 18.0356H24.1125L24.1227 18.0458V18.0356Z" fill="#64009C"/>
<path d="M24.7364 19.2634V19.2532H24.7261L24.7364 19.2634Z" fill="#64009C"/>
<path d="M24.1125 18.0356V18.0458H24.1227L24.1125 18.0356Z" fill="#64009C"/>
<path d="M16.1636 13.1458V13.156H16.1739L16.1636 13.1458Z" fill="#64009C"/>
<path d="M16.7875 13.1458H16.7773V13.156L16.7875 13.1458Z" fill="#64009C"/>
<path d="M16.1739 13.1458H16.1636L16.1739 13.156V13.1458Z" fill="#64009C"/>
<path d="M15.56 16.2046H15.5497V16.2148H15.56V16.2046Z" fill="#64009C"/>
<path d="M16.7875 22.312H16.7773L16.7875 22.3222V22.312Z" fill="#64009C"/>
<path d="M17.381 22.9359H17.3912L17.381 22.9256V22.9359Z" fill="#64009C"/>
<path d="M16.7773 22.9359H16.7875V22.9256L16.7773 22.9359Z" fill="#64009C"/>
<path d="M17.3912 22.9359V22.9256H17.381L17.3912 22.9359Z" fill="#64009C"/>
<path d="M16.7773 22.312V22.3222H16.7875L16.7773 22.312Z" fill="#64009C"/>
<path d="M18.0051 21.7083H17.9949V21.7185L18.0051 21.7083Z" fill="#64009C"/>
<path d="M17.9949 22.3222H18.0051L17.9949 22.312V22.3222Z" fill="#64009C"/>
<path d="M18.0051 21.7185V21.7083L17.9949 21.7185H18.0051Z" fill="#64009C"/>
<path d="M18.0051 22.3222V22.312H17.9949L18.0051 22.3222Z" fill="#64009C"/>
<path d="M17.381 22.312V22.3222L17.3912 22.312H17.381Z" fill="#64009C"/>
<path d="M17.381 22.3222H17.3912V22.312L17.381 22.3222Z" fill="#64009C"/>
</svg>
